<?xml version="1.0" encoding="UTF-8" standalone="no"?>
<!-- Created with Inkscape (http://www.inkscape.org/) -->

<svg
   xmlns:dc="http://purl.org/dc/elements/1.1/"
   xmlns:cc="http://creativecommons.org/ns#"
   xmlns:rdf="http://www.w3.org/1999/02/22-rdf-syntax-ns#"
   xmlns:svg="http://www.w3.org/2000/svg"
   xmlns="http://www.w3.org/2000/svg"
   xmlns:sodipodi="http://sodipodi.sourceforge.net/DTD/sodipodi-0.dtd"
   xmlns:inkscape="http://www.inkscape.org/namespaces/inkscape"
   id="svg2985"
   version="1.1"
   inkscape:version="0.48.4 r9939"
   width="224.504"
   height="97.893623"
   xml:space="preserve"
   sodipodi:docname="extmd_logo_final.svg"><metadata
     id="metadata2991"><rdf:RDF><cc:Work
         rdf:about=""><dc:format>image/svg+xml</dc:format><dc:type
           rdf:resource="http://purl.org/dc/dcmitype/StillImage" /><dc:title></dc:title></cc:Work></rdf:RDF></metadata><defs
     id="defs2989"><clipPath
       clipPathUnits="userSpaceOnUse"
       id="clipPath2999"><path
         d="m 0,500.035 500.035,0 L 500.035,0 0,0 0,500.035 z"
         id="path3001"
         inkscape:connector-curvature="0" /></clipPath><clipPath
       clipPathUnits="userSpaceOnUse"
       id="clipPath3007"><path
         d="m -7941.62,8441.07 16383,0 0,-16383 -16383,0 0,16383 z"
         id="path3009"
         inkscape:connector-curvature="0" /></clipPath></defs><sodipodi:namedview
     pagecolor="#ffffff"
     bordercolor="#666666"
     borderopacity="1"
     objecttolerance="10"
     gridtolerance="10"
     guidetolerance="10"
     inkscape:pageopacity="0"
     inkscape:pageshadow="2"
     inkscape:window-width="956"
     inkscape:window-height="1037"
     id="namedview2987"
     showgrid="false"
     inkscape:zoom="1.36"
     inkscape:cx="112.25188"
     inkscape:cy="49.387618"
     inkscape:window-x="960"
     inkscape:window-y="20"
     inkscape:window-maximized="0"
     inkscape:current-layer="g2993"
     fit-margin-top="0"
     fit-margin-left="0"
     fit-margin-right="0"
     fit-margin-bottom="0" /><g
     id="g2993"
     inkscape:groupmode="layer"
     inkscape:label="extmd_logo_final"
     transform="matrix(1.25,0,0,-1.25,-200.27,361.02787)"><g
       id="g2995"><g
         id="g2997"
         clip-path="url(#clipPath2999)"><g
           id="g3003"><g
             id="g3005" /><g
             id="g3011"><g
               clip-path="url(#clipPath3007)"
               id="g3013"><g
                 transform="translate(270.0347,288.8223)"
                 id="g3015"><path
                   d="m 0,0 c -8.728,0 -17.42,-8.784 -17.42,-8.784 l 6.014,-7.789 c 0,0 5.846,6.228 11.406,6.228 5.561,0 8.44,-4.874 8.44,-8.717 0,-3.782 -2.722,-8.931 -8.44,-8.931 -7.946,0 -17.532,16.6 -21.686,20.59 C -26.529,-2.75 -31.308,0 -39.723,0 -48.138,0 -57.72,-5.416 -57.72,-18.851 c 0,-13.435 8.699,-19.556 17.997,-19.556 12.267,0 18.455,8.999 18.455,8.999 l -5.894,7.704 c 0,0 -6.369,-6.289 -12.561,-6.289 -5.684,0 -7.628,5.804 -7.628,5.804 l 8.843,0 0,6.676 -8.837,0 c 0,0 2.313,5.168 7.622,5.168 5.444,0 9.856,-3.816 12.953,-8.029 3.099,-4.213 4.305,-5.939 7.374,-9.619 3.214,-3.854 10.2,-10.414 19.396,-10.414 8.421,0 18.866,6.439 18.866,19.556 C 18.866,-5.734 8.729,0 0,0"
                   style="fill:#141414;fill-opacity:1;fill-rule:nonzero;stroke:none"
                   id="path3017"
                   inkscape:connector-curvature="0" /></g><g
                 transform="translate(171.665,221.7334)"
                 id="g3019"><path
                   d="M 0,0 C -0.229,0.655 -0.551,1.235 -0.968,1.741 -1.385,2.248 -1.891,2.654 -2.486,2.963 -3.082,3.27 -3.757,3.424 -4.511,3.424 -5.285,3.424 -5.97,3.27 -6.565,2.963 -7.161,2.654 -7.667,2.248 -8.084,1.741 -8.501,1.235 -8.833,0.649 -9.082,-0.015 -9.33,-0.681 -9.494,-1.36 -9.573,-2.055 l 9.945,0 C 0.352,-1.34 0.228,-0.655 0,0 m -9.29,-5.731 c 0.188,-0.726 0.492,-1.375 0.908,-1.952 0.417,-0.575 0.943,-1.051 1.578,-1.428 0.636,-0.377 1.4,-0.566 2.293,-0.566 1.37,0 2.442,0.357 3.216,1.072 0.774,0.714 1.31,1.668 1.607,2.858 l 1.876,0 C 1.791,-7.494 1.062,-8.844 0,-9.796 c -1.062,-0.953 -2.566,-1.43 -4.511,-1.43 -1.211,0 -2.258,0.214 -3.141,0.641 -0.884,0.427 -1.603,1.012 -2.159,1.757 -0.556,0.744 -0.968,1.607 -1.235,2.59 -0.268,0.982 -0.403,2.019 -0.403,3.111 0,1.013 0.135,2.005 0.403,2.978 0.267,0.972 0.679,1.841 1.235,2.605 0.556,0.764 1.275,1.38 2.159,1.847 0.883,0.466 1.93,0.699 3.141,0.699 1.231,0 2.282,-0.248 3.156,-0.744 C -0.481,3.762 0.228,3.111 0.774,2.308 1.32,1.504 1.712,0.58 1.95,-0.462 2.188,-1.504 2.288,-2.561 2.248,-3.633 l -11.821,0 c 0,-0.675 0.094,-1.375 0.283,-2.098"
                   style="fill:#141414;fill-opacity:1;fill-rule:nonzero;stroke:none"
                   id="path3021"
                   inkscape:connector-curvature="0" /></g><g
                 transform="translate(173.9429,226.2891)"
                 id="g3023"><path
                   d="M 0,0 2.352,0 6.729,-5.836 11.017,0 l 2.352,0 -5.538,-7.354 5.984,-8.01 -2.381,0 -4.824,6.461 -4.735,-6.461 -2.322,0 5.955,7.979 L 0,0 z"
                   style="fill:#141414;fill-opacity:1;fill-rule:nonzero;stroke:none"
                   id="path3025"
                   inkscape:connector-curvature="0" /></g><g
                 transform="translate(195.6787,226.2891)"
                 id="g3027"><path
                   d="m 0,0 0,-1.578 -3.126,0 0,-10.362 c 0,-0.616 0.084,-1.097 0.252,-1.444 0.169,-0.347 0.591,-0.541 1.266,-0.581 0.536,0 1.072,0.03 1.608,0.089 l 0,-1.577 c -0.278,0 -0.556,-0.01 -0.834,-0.03 -0.278,-0.02 -0.556,-0.03 -0.833,-0.03 -1.251,0 -2.125,0.242 -2.621,0.73 -0.496,0.485 -0.734,1.384 -0.714,2.694 l 0,10.511 -2.68,0 0,1.578 2.68,0 0,4.615 1.876,0 L -3.126,0 0,0 z"
                   style="fill:#141414;fill-opacity:1;fill-rule:nonzero;stroke:none"
                   id="path3029"
                   inkscape:connector-curvature="0" /></g><g
                 transform="translate(207.8711,221.7334)"
                 id="g3031"><path
                   d="M 0,0 C -0.229,0.655 -0.551,1.235 -0.968,1.741 -1.385,2.248 -1.891,2.654 -2.486,2.963 -3.082,3.27 -3.757,3.424 -4.511,3.424 -5.285,3.424 -5.97,3.27 -6.565,2.963 -7.161,2.654 -7.667,2.248 -8.084,1.741 -8.501,1.235 -8.833,0.649 -9.082,-0.015 -9.33,-0.681 -9.494,-1.36 -9.573,-2.055 l 9.945,0 C 0.352,-1.34 0.228,-0.655 0,0 m -9.29,-5.731 c 0.188,-0.726 0.492,-1.375 0.908,-1.952 0.417,-0.575 0.943,-1.051 1.578,-1.428 0.636,-0.377 1.4,-0.566 2.293,-0.566 1.37,0 2.442,0.357 3.216,1.072 0.774,0.714 1.31,1.668 1.607,2.858 l 1.876,0 C 1.791,-7.494 1.062,-8.844 0,-9.796 c -1.062,-0.953 -2.566,-1.43 -4.511,-1.43 -1.211,0 -2.258,0.214 -3.141,0.641 -0.884,0.427 -1.603,1.012 -2.159,1.757 -0.556,0.744 -0.968,1.607 -1.235,2.59 -0.268,0.982 -0.403,2.019 -0.403,3.111 0,1.013 0.135,2.005 0.403,2.978 0.267,0.972 0.679,1.841 1.235,2.605 0.556,0.764 1.275,1.38 2.159,1.847 0.883,0.466 1.93,0.699 3.141,0.699 1.231,0 2.282,-0.248 3.156,-0.744 C -0.481,3.762 0.228,3.111 0.774,2.308 1.32,1.504 1.712,0.58 1.95,-0.462 2.188,-1.504 2.288,-2.561 2.248,-3.633 l -11.821,0 c 0,-0.675 0.094,-1.375 0.283,-2.098"
                   style="fill:#141414;fill-opacity:1;fill-rule:nonzero;stroke:none"
                   id="path3033"
                   inkscape:connector-curvature="0" /></g><g
                 transform="translate(213.9009,226.2891)"
                 id="g3035"><path
                   d="m 0,0 0,-2.65 0.059,0 c 0.358,0.932 0.993,1.682 1.905,2.248 0.914,0.565 1.916,0.848 3.008,0.848 1.072,0 1.97,-0.138 2.695,-0.417 0.724,-0.278 1.305,-0.67 1.742,-1.175 0.436,-0.506 0.745,-1.127 0.923,-1.862 0.178,-0.734 0.267,-1.558 0.267,-2.471 l 0,-9.885 -1.875,0 0,9.588 c 0,0.655 -0.059,1.265 -0.179,1.831 -0.119,0.565 -0.327,1.056 -0.626,1.473 -0.296,0.417 -0.699,0.744 -1.205,0.983 -0.506,0.238 -1.136,0.357 -1.89,0.357 -0.755,0 -1.425,-0.134 -2.01,-0.401 C 2.228,-1.802 1.732,-2.169 1.325,-2.636 0.917,-3.102 0.6,-3.658 0.372,-4.303 0.144,-4.948 0.02,-5.647 0,-6.402 l 0,-8.962 -1.876,0 L -1.876,0 0,0 z"
                   style="fill:#141414;fill-opacity:1;fill-rule:nonzero;stroke:none"
                   id="path3037"
                   inkscape:connector-curvature="0" /></g><g
                 transform="translate(228.3555,216.2393)"
                 id="g3039"><path
                   d="m 0,0 c 0.189,-0.784 0.486,-1.483 0.895,-2.099 0.406,-0.615 0.927,-1.116 1.562,-1.504 0.635,-0.386 1.399,-0.58 2.293,-0.58 0.992,0 1.831,0.194 2.516,0.58 0.685,0.388 1.24,0.889 1.668,1.504 0.425,0.616 0.734,1.315 0.922,2.099 0.189,0.784 0.283,1.573 0.283,2.367 0,0.794 -0.094,1.583 -0.283,2.367 C 9.668,5.519 9.359,6.219 8.934,6.834 8.506,7.449 7.951,7.95 7.266,8.338 6.581,8.725 5.742,8.918 4.75,8.918 3.856,8.918 3.092,8.725 2.457,8.338 1.822,7.95 1.301,7.449 0.895,6.834 0.486,6.219 0.189,5.519 0,4.734 -0.188,3.95 -0.282,3.161 -0.282,2.367 -0.282,1.573 -0.188,0.784 0,0 m 10.288,-5.314 0,2.918 -0.059,0 C 10.029,-2.893 9.737,-3.35 9.35,-3.767 8.963,-4.183 8.521,-4.535 8.025,-4.823 7.529,-5.111 6.998,-5.334 6.432,-5.493 5.866,-5.651 5.305,-5.731 4.75,-5.731 c -1.172,0 -2.188,0.213 -3.053,0.64 -0.863,0.427 -1.582,1.012 -2.158,1.757 -0.576,0.744 -1.002,1.607 -1.28,2.59 -0.279,0.982 -0.417,2.019 -0.417,3.111 0,1.092 0.138,2.129 0.417,3.112 0.278,0.983 0.704,1.846 1.28,2.59 0.576,0.744 1.295,1.335 2.158,1.772 0.865,0.436 1.881,0.655 3.053,0.655 0.575,0 1.136,-0.069 1.682,-0.208 C 6.979,10.148 7.489,9.936 7.965,9.647 8.441,9.359 8.863,9.008 9.23,8.591 9.598,8.174 9.881,7.687 10.08,7.132 l 0.059,0 0,8.813 1.877,0 0,-21.259 -1.728,0 z"
                   style="fill:#141414;fill-opacity:1;fill-rule:nonzero;stroke:none"
                   id="path3041"
                   inkscape:connector-curvature="0" /></g><g
                 transform="translate(254.022,221.7334)"
                 id="g3043"><path
                   d="M 0,0 C -0.229,0.655 -0.551,1.235 -0.969,1.741 -1.385,2.248 -1.891,2.654 -2.486,2.963 -3.082,3.27 -3.756,3.424 -4.51,3.424 -5.286,3.424 -5.969,3.27 -6.565,2.963 -7.161,2.654 -7.667,2.248 -8.084,1.741 -8.5,1.235 -8.833,0.649 -9.082,-0.015 -9.331,-0.681 -9.494,-1.36 -9.573,-2.055 l 9.944,0 C 0.352,-1.34 0.229,-0.655 0,0 m -9.29,-5.731 c 0.188,-0.726 0.492,-1.375 0.909,-1.952 0.416,-0.575 0.942,-1.051 1.578,-1.428 0.635,-0.377 1.398,-0.566 2.293,-0.566 1.369,0 2.44,0.357 3.215,1.072 0.774,0.714 1.311,1.668 1.607,2.858 l 1.876,0 C 1.791,-7.494 1.061,-8.844 0,-9.796 c -1.062,-0.953 -2.566,-1.43 -4.51,-1.43 -1.212,0 -2.259,0.214 -3.143,0.641 -0.883,0.427 -1.602,1.012 -2.158,1.757 -0.556,0.744 -0.968,1.607 -1.235,2.59 -0.269,0.982 -0.403,2.019 -0.403,3.111 0,1.013 0.134,2.005 0.403,2.978 0.267,0.972 0.679,1.841 1.235,2.605 0.556,0.764 1.275,1.38 2.158,1.847 0.884,0.466 1.931,0.699 3.143,0.699 1.231,0 2.281,-0.248 3.155,-0.744 C -0.482,3.762 0.229,3.111 0.773,2.308 1.32,1.504 1.711,0.58 1.949,-0.462 2.188,-1.504 2.287,-2.561 2.248,-3.633 l -11.821,0 c 0,-0.675 0.094,-1.375 0.283,-2.098"
                   style="fill:#141414;fill-opacity:1;fill-rule:nonzero;stroke:none"
                   id="path3045"
                   inkscape:connector-curvature="0" /></g><g
                 transform="translate(259.7095,216.2393)"
                 id="g3047"><path
                   d="m 0,0 c 0.187,-0.784 0.486,-1.483 0.893,-2.099 0.406,-0.615 0.927,-1.116 1.564,-1.504 0.635,-0.386 1.398,-0.58 2.291,-0.58 0.992,0 1.832,0.194 2.518,0.58 0.683,0.388 1.24,0.889 1.666,1.504 0.427,0.616 0.734,1.315 0.923,2.099 0.188,0.784 0.284,1.573 0.284,2.367 0,0.794 -0.096,1.583 -0.284,2.367 C 9.666,5.519 9.359,6.219 8.932,6.834 8.506,7.449 7.949,7.95 7.266,8.338 6.58,8.725 5.74,8.918 4.748,8.918 3.855,8.918 3.092,8.725 2.457,8.338 1.82,7.95 1.299,7.449 0.893,6.834 0.486,6.219 0.187,5.519 0,4.734 -0.189,3.95 -0.283,3.161 -0.283,2.367 -0.283,1.573 -0.189,0.784 0,0 m 10.287,-5.314 0,2.918 -0.06,0 C 10.029,-2.893 9.736,-3.35 9.35,-3.767 8.963,-4.183 8.52,-4.535 8.023,-4.823 7.527,-5.111 6.996,-5.334 6.432,-5.493 5.865,-5.651 5.305,-5.731 4.748,-5.731 c -1.17,0 -2.187,0.213 -3.051,0.64 -0.863,0.427 -1.584,1.012 -2.158,1.757 -0.576,0.744 -1.004,1.607 -1.281,2.59 -0.278,0.982 -0.416,2.019 -0.416,3.111 0,1.092 0.138,2.129 0.416,3.112 0.277,0.983 0.705,1.846 1.281,2.59 0.574,0.744 1.295,1.335 2.158,1.772 0.864,0.436 1.881,0.655 3.051,0.655 0.576,0 1.137,-0.069 1.684,-0.208 C 6.977,10.148 7.488,9.936 7.965,9.647 8.441,9.359 8.863,9.008 9.23,8.591 9.598,8.174 9.881,7.687 10.078,7.132 l 0.061,0 0,8.813 1.875,0 0,-21.259 -1.727,0 z"
                   style="fill:#141414;fill-opacity:1;fill-rule:nonzero;stroke:none"
                   id="path3049"
                   inkscape:connector-curvature="0" /></g><g
                 transform="translate(284.1099,226.2891)"
                 id="g3051"><path
                   d="m 0,0 0,-2.591 0.088,0 c 0.496,0.953 1.146,1.697 1.951,2.234 0.805,0.536 1.83,0.803 3.082,0.803 1.012,0 1.93,-0.248 2.754,-0.744 0.824,-0.496 1.375,-1.251 1.652,-2.263 0.457,1.012 1.131,1.767 2.026,2.263 0.892,0.496 1.845,0.744 2.857,0.744 3.395,0 5.092,-1.797 5.092,-5.389 l 0,-10.421 -1.875,0 0,10.332 c 0,1.27 -0.27,2.237 -0.805,2.903 -0.535,0.665 -1.478,0.997 -2.828,0.997 -0.814,0 -1.488,-0.154 -2.025,-0.461 -0.535,-0.308 -0.963,-0.72 -1.28,-1.236 C 10.371,-3.346 10.148,-3.936 10.02,-4.601 9.889,-5.266 9.824,-5.955 9.824,-6.67 l 0,-8.694 -1.875,0 0,10.421 c 0,0.516 -0.054,1.007 -0.164,1.474 -0.109,0.466 -0.287,0.873 -0.535,1.221 -0.248,0.347 -0.58,0.62 -0.998,0.818 -0.416,0.199 -0.924,0.298 -1.518,0.298 -0.795,0 -1.484,-0.144 -2.07,-0.431 C 2.078,-1.852 1.602,-2.248 1.234,-2.755 0.867,-3.261 0.596,-3.856 0.416,-4.541 0.238,-5.226 0.148,-5.976 0.148,-6.789 l 0,-8.575 -1.877,0 L -1.729,0 0,0 z"
                   style="fill:#141414;fill-opacity:1;fill-rule:nonzero;stroke:none"
                   id="path3053"
                   inkscape:connector-curvature="0" /></g><path
                 d="m 308.495,210.925 -1.875,0 0,15.364 1.875,0 0,-15.364 z m 0,18.252 -1.875,0 0,3.008 1.875,0 0,-3.008 z"
                 style="fill:#141414;fill-opacity:1;fill-rule:nonzero;stroke:none"
                 id="path3055"
                 inkscape:connector-curvature="0" /><g
                 transform="translate(313.3481,226.2891)"
                 id="g3057"><path
                   d="m 0,0 0,-2.65 0.061,0 c 0.357,0.932 0.992,1.682 1.904,2.248 0.914,0.565 1.916,0.848 3.008,0.848 1.072,0 1.97,-0.138 2.695,-0.417 0.725,-0.278 1.305,-0.67 1.742,-1.175 0.436,-0.506 0.744,-1.127 0.922,-1.862 0.18,-0.734 0.268,-1.558 0.268,-2.471 l 0,-9.885 -1.875,0 0,9.588 c 0,0.655 -0.061,1.265 -0.18,1.831 -0.119,0.565 -0.326,1.056 -0.625,1.473 -0.297,0.417 -0.699,0.744 -1.205,0.983 -0.506,0.238 -1.137,0.357 -1.891,0.357 -0.756,0 -1.426,-0.134 -2.01,-0.401 C 2.229,-1.802 1.732,-2.169 1.326,-2.636 0.918,-3.102 0.6,-3.658 0.373,-4.303 0.145,-4.948 0.02,-5.647 0,-6.402 l 0,-8.962 -1.875,0 L -1.875,0 0,0 z"
                   style="fill:#141414;fill-opacity:1;fill-rule:nonzero;stroke:none"
                   id="path3059"
                   inkscape:connector-curvature="0" /></g><g
                 transform="translate(327.8032,216.2393)"
                 id="g3061"><path
                   d="m 0,0 c 0.189,-0.784 0.486,-1.483 0.895,-2.099 0.406,-0.615 0.927,-1.116 1.562,-1.504 0.635,-0.386 1.4,-0.58 2.293,-0.58 0.992,0 1.83,0.194 2.516,0.58 0.685,0.388 1.24,0.889 1.668,1.504 0.425,0.616 0.734,1.315 0.921,2.099 0.19,0.784 0.284,1.573 0.284,2.367 0,0.794 -0.094,1.583 -0.284,2.367 C 9.668,5.519 9.359,6.219 8.934,6.834 8.506,7.449 7.951,7.95 7.266,8.338 6.58,8.725 5.742,8.918 4.75,8.918 3.857,8.918 3.092,8.725 2.457,8.338 1.822,7.95 1.301,7.449 0.895,6.834 0.486,6.219 0.189,5.519 0,4.734 -0.187,3.95 -0.283,3.161 -0.283,2.367 -0.283,1.573 -0.187,0.784 0,0 m 10.287,-5.314 0,2.918 -0.058,0 C 10.029,-2.893 9.736,-3.35 9.35,-3.767 8.963,-4.183 8.521,-4.535 8.025,-4.823 7.529,-5.111 6.998,-5.334 6.432,-5.493 5.867,-5.651 5.305,-5.731 4.75,-5.731 c -1.172,0 -2.189,0.213 -3.053,0.64 -0.863,0.427 -1.582,1.012 -2.158,1.757 -0.576,0.744 -1.002,1.607 -1.281,2.59 -0.278,0.982 -0.416,2.019 -0.416,3.111 0,1.092 0.138,2.129 0.416,3.112 0.279,0.983 0.705,1.846 1.281,2.59 0.576,0.744 1.295,1.335 2.158,1.772 0.864,0.436 1.881,0.655 3.053,0.655 0.576,0 1.137,-0.069 1.682,-0.208 C 6.979,10.148 7.488,9.936 7.965,9.647 8.441,9.359 8.863,9.008 9.23,8.591 9.598,8.174 9.881,7.687 10.08,7.132 l 0.059,0 0,8.813 1.877,0 0,-21.259 -1.729,0 z"
                   style="fill:#141414;fill-opacity:1;fill-rule:nonzero;stroke:none"
                   id="path3063"
                   inkscape:connector-curvature="0" /></g></g></g></g></g></g></g></svg>