<?xml version="1.0" encoding="UTF-8" standalone="no"?>
<!-- Generator: Adobe Illustrator 17.1.0, SVG Export Plug-In . SVG Version: 6.00 Build 0)  -->

<svg
   xmlns:dc="http://purl.org/dc/elements/1.1/"
   xmlns:cc="http://creativecommons.org/ns#"
   xmlns:rdf="http://www.w3.org/1999/02/22-rdf-syntax-ns#"
   xmlns:svg="http://www.w3.org/2000/svg"
   xmlns="http://www.w3.org/2000/svg"
   xmlns:sodipodi="http://sodipodi.sourceforge.net/DTD/sodipodi-0.dtd"
   xmlns:inkscape="http://www.inkscape.org/namespaces/inkscape"
   version="1.1"
   id="Layer_2"
   x="0px"
   y="0px"
   viewBox="0 0 29 25"
   enable-background="new 0 0 35 33"
   xml:space="preserve"
   inkscape:version="0.91 r13725"
   sodipodi:docname="calendar.svg"
   width="29"
   height="25"><metadata
     id="metadata61"><rdf:RDF><cc:Work
         rdf:about=""><dc:format>image/svg+xml</dc:format><dc:type
           rdf:resource="http://purl.org/dc/dcmitype/StillImage" /><dc:title></dc:title></cc:Work></rdf:RDF></metadata><defs
     id="defs59" /><sodipodi:namedview
     pagecolor="#ffffff"
     bordercolor="#666666"
     borderopacity="1"
     objecttolerance="10"
     gridtolerance="10"
     guidetolerance="10"
     inkscape:pageopacity="0"
     inkscape:pageshadow="2"
     inkscape:window-width="956"
     inkscape:window-height="1037"
     id="namedview57"
     showgrid="false"
     fit-margin-top="0"
     fit-margin-left="0"
     fit-margin-right="0"
     fit-margin-bottom="0"
     inkscape:zoom="7.1515152"
     inkscape:cx="-8.0127119"
     inkscape:cy="13"
     inkscape:window-x="960"
     inkscape:window-y="20"
     inkscape:window-maximized="0"
     inkscape:current-layer="Layer_2" /><g
     id="g3"
     transform="translate(-3,-4.5)"><g
       id="g5"><g
         id="g7"><path
           d="m 13,13.6 c 0,0.6 -0.4,1 -1,1 l -3,0 c -0.6,0 -1,-0.4 -1,-1 l 0,-1 c 0,-0.6 0.4,-1 1,-1 l 3,0 c 0.6,0 1,0.4 1,1 l 0,1 z"
           id="path9"
           inkscape:connector-curvature="0" /></g><g
         id="g11"><path
           d="m 27,13.6 c 0,0.6 -0.5,1 -1,1 l -3,0 c -0.6,0 -1,-0.4 -1,-1 l 0,-1 c 0,-0.6 0.4,-1 1,-1 l 3,0 c 0.5,0 1,0.4 1,1 l 0,1 z"
           id="path13"
           inkscape:connector-curvature="0" /></g><g
         id="g15"><path
           d="m 20,13.6 c 0,0.6 -0.5,1 -1,1 l -3,0 c -0.6,0 -1,-0.4 -1,-1 l 0,-1 c 0,-0.6 0.4,-1 1,-1 l 3,0 c 0.5,0 1,0.4 1,1 l 0,1 z"
           id="path17"
           inkscape:connector-curvature="0" /></g></g><g
       id="g19"><g
         id="g21"><path
           d="m 13,19 c 0,0.6 -0.4,1 -1,1 L 9,20 C 8.4,20 8,19.6 8,19 l 0,-1 c 0,-0.5 0.4,-1 1,-1 l 3,0 c 0.6,0 1,0.5 1,1 l 0,1 z"
           id="path23"
           inkscape:connector-curvature="0" /></g><g
         id="g25"><path
           d="m 27,19 c 0,0.6 -0.5,1 -1,1 l -3,0 c -0.6,0 -1,-0.4 -1,-1 l 0,-1 c 0,-0.5 0.4,-1 1,-1 l 3,0 c 0.5,0 1,0.5 1,1 l 0,1 z"
           id="path27"
           inkscape:connector-curvature="0" /></g><g
         id="g29"><path
           d="m 20,19 c 0,0.6 -0.5,1 -1,1 l -3,0 c -0.6,0 -1,-0.4 -1,-1 l 0,-1 c 0,-0.5 0.4,-1 1,-1 l 3,0 c 0.5,0 1,0.5 1,1 l 0,1 z"
           id="path31"
           inkscape:connector-curvature="0" /></g></g><g
       id="g33"><g
         id="g35"><path
           d="m 13,24.3 c 0,0.6 -0.4,1 -1,1 l -3,0 c -0.6,0 -1,-0.4 -1,-1 l 0,-1 c 0,-0.5 0.4,-1 1,-1 l 3,0 c 0.6,0 1,0.5 1,1 l 0,1 z"
           id="path37"
           inkscape:connector-curvature="0" /></g><g
         id="g39"><path
           d="m 27,24.3 c 0,0.6 -0.5,1 -1,1 l -3,0 c -0.6,0 -1,-0.4 -1,-1 l 0,-1 c 0,-0.5 0.4,-1 1,-1 l 3,0 c 0.5,0 1,0.5 1,1 l 0,1 z"
           id="path41"
           inkscape:connector-curvature="0" /></g><g
         id="g43"><path
           d="m 20,24.3 c 0,0.6 -0.5,1 -1,1 l -3,0 c -0.6,0 -1,-0.4 -1,-1 l 0,-1 c 0,-0.5 0.4,-1 1,-1 l 3,0 c 0.5,0 1,0.5 1,1 l 0,1 z"
           id="path45"
           inkscape:connector-curvature="0" /></g></g></g><g
     id="g47"
     transform="translate(-3,-4.5)"><path
       d="m 24,9 c 0,0.3 0.2,0.5 0.5,0.5 l 0,0 C 24.8,9.5 25,9.3 25,9 L 25,5 C 25,4.7 24.8,4.5 24.5,4.5 l 0,0 C 24.2,4.5 24,4.8 24,5 l 0,4 z"
       id="path49"
       inkscape:connector-curvature="0" /></g><g
     id="g51"
     transform="translate(-3,-4.5)"><path
       d="m 10,9 c 0,0.3 0.2,0.5 0.5,0.5 l 0,0 C 10.8,9.5 11,9.3 11,9 L 11,5 C 11,4.7 10.8,4.5 10.5,4.5 l 0,0 C 10.2,4.5 10,4.8 10,5 l 0,4 z"
       id="path53"
       inkscape:connector-curvature="0" /></g><path
     d="m 26.5,25 -24,0 C 1.1,25 0,23.9 0,22.5 L 0,4.5 C 0,3.1 1.1,2 2.5,2 l 24,0 C 27.9,2 29,3.2 29,4.5 l 0,18 C 29,23.9 27.9,25 26.5,25 Z M 2.5,3 C 1.7,3 1,3.7 1,4.5 l 0,18 C 1,23.3 1.7,24 2.5,24 l 24,0 c 0.8,0 1.5,-0.7 1.5,-1.5 l 0,-18 C 28,3.7 27.3,3 26.5,3 l -24,0 z"
     id="path55"
     inkscape:connector-curvature="0" /></svg>