<?xml version="1.0" encoding="UTF-8" standalone="no"?>
<!-- Generator: Adobe Illustrator 18.0.0, SVG Export Plug-In . SVG Version: 6.00 Build 0)  -->

<svg
   xmlns:dc="http://purl.org/dc/elements/1.1/"
   xmlns:cc="http://creativecommons.org/ns#"
   xmlns:rdf="http://www.w3.org/1999/02/22-rdf-syntax-ns#"
   xmlns:svg="http://www.w3.org/2000/svg"
   xmlns="http://www.w3.org/2000/svg"
   xmlns:sodipodi="http://sodipodi.sourceforge.net/DTD/sodipodi-0.dtd"
   xmlns:inkscape="http://www.inkscape.org/namespaces/inkscape"
   version="1.1"
   id="Layer_1"
   x="0px"
   y="0px"
   viewBox="-0.5 -0.5 19 19.2"
   enable-background="new -0.5 -0.5 20 20.2"
   xml:space="preserve"
   inkscape:version="0.91 r13725"
   sodipodi:docname="circle-checked.svg"
   width="19"
   height="19.200001"><metadata
     id="metadata28"><rdf:RDF><cc:Work
         rdf:about=""><dc:format>image/svg+xml</dc:format><dc:type
           rdf:resource="http://purl.org/dc/dcmitype/StillImage" /><dc:title></dc:title></cc:Work></rdf:RDF></metadata><defs
     id="defs26" /><sodipodi:namedview
     pagecolor="#ffffff"
     bordercolor="#666666"
     borderopacity="1"
     objecttolerance="10"
     gridtolerance="10"
     guidetolerance="10"
     inkscape:pageopacity="0"
     inkscape:pageshadow="2"
     inkscape:window-width="956"
     inkscape:window-height="1037"
     id="namedview24"
     showgrid="false"
     inkscape:zoom="11.683168"
     inkscape:cx="-4.280509"
     inkscape:cy="9.5999996"
     inkscape:window-x="960"
     inkscape:window-y="20"
     inkscape:window-maximized="0"
     inkscape:current-layer="Layer_1"
     fit-margin-top="0"
     fit-margin-left="0"
     fit-margin-right="0"
     fit-margin-bottom="0" /><g
     id="Background-xA0-Image-1-"
     transform="translate(-0.5,-0.5)" /><g
     id="CONTENT-1-"
     transform="translate(-0.5,-0.5)"><g
       id="g5"><g
         id="check.png-copy-2"><g
           id="g8"><path
             d="M 9.5,0 C 4.3,0 0,4.3 0,9.6 0,14.9 4.3,19.2 9.5,19.2 14.7,19.2 19,14.9 19,9.6 19,4.3 14.7,0 9.5,0 Z m 0,18.4 c -4.8,0 -8.7,-3.9 -8.7,-8.8 0,-4.9 3.9,-8.8 8.7,-8.8 4.8,0 8.7,3.9 8.7,8.8 0,4.9 -3.9,8.8 -8.7,8.8 z m -1.1,-6.7 0,0 -0.5,0.5 0.5,0.5 5.4,-5.4 -0.5,-0.5 -4.9,4.9 z M 5.7,9 5.2,9.5 7.9,12.2 8.4,11.7 5.7,9 Z"
             id="path10"
             style="fill:#000000"
             inkscape:connector-curvature="0" /></g></g></g><g
       id="check.png-copy-7-2-"
       enable-background="new    " /><g
       id="check.png-copy-10-2-"
       enable-background="new    " /></g><g
     id="UNACTIVE-1-"
     transform="translate(-0.5,-0.5)" /><g
     id="ARROWS-1-"
     transform="translate(-0.5,-0.5)"><g
       id="check.png-copy-8-2-"
       enable-background="new    " /><g
       id="notes" /><g
       id="inbox" /><g
       id="tasks" /><g
       id="home" /><g
       id="check.png-copy-9-2-"
       enable-background="new    " /></g><g
     id="Layer-14"
     transform="translate(-0.5,-0.5)" /><g
     id="TOP-1-"
     transform="translate(-0.5,-0.5)" /></svg>