<?xml version="1.0" encoding="UTF-8" standalone="no"?>
<svg
   xmlns:dc="http://purl.org/dc/elements/1.1/"
   xmlns:cc="http://creativecommons.org/ns#"
   xmlns:rdf="http://www.w3.org/1999/02/22-rdf-syntax-ns#"
   xmlns:svg="http://www.w3.org/2000/svg"
   xmlns="http://www.w3.org/2000/svg"
   xmlns:sodipodi="http://sodipodi.sourceforge.net/DTD/sodipodi-0.dtd"
   xmlns:inkscape="http://www.inkscape.org/namespaces/inkscape"
   enable-background="new 0 0 32 32"
   height="23"
   id="Layer_1"
   version="1.1"
   viewBox="0 0 31.998047 23"
   width="31.998047"
   xml:space="preserve"
   inkscape:version="0.91 r13725"
   sodipodi:docname="downloading.svg"><metadata
     id="metadata3374"><rdf:RDF><cc:Work
         rdf:about=""><dc:format>image/svg+xml</dc:format><dc:type
           rdf:resource="http://purl.org/dc/dcmitype/StillImage" /><dc:title></dc:title></cc:Work></rdf:RDF></metadata><defs
     id="defs3372" /><sodipodi:namedview
     pagecolor="#ffffff"
     bordercolor="#666666"
     borderopacity="1"
     objecttolerance="10"
     gridtolerance="10"
     guidetolerance="10"
     inkscape:pageopacity="0"
     inkscape:pageshadow="2"
     inkscape:window-width="956"
     inkscape:window-height="1037"
     id="namedview3370"
     showgrid="false"
     fit-margin-top="0"
     fit-margin-left="0"
     fit-margin-right="0"
     fit-margin-bottom="0"
     inkscape:zoom="6.6640625"
     inkscape:cx="15.998047"
     inkscape:cy="12"
     inkscape:window-x="0"
     inkscape:window-y="20"
     inkscape:window-maximized="0"
     inkscape:current-layer="Layer_1" /><path
     d="M 16.998047 0 C 13.379047 0 10.280563 2.1484684 8.8515625 5.2304688 C 8.4215625 5.0944687 7.975 5 7.5 5 C 5.015 5 3 7.016 3 9.5 C 3 9.994 3.0971409 10.461297 3.2441406 10.904297 C 1.3111405 12.031297 5.9211895e-16 14.099047 0 16.498047 C 0 20.088047 2.91 22.998047 6.5 22.998047 L 6.5 23 L 24.498047 23 L 24.498047 22.998047 C 28.641047 22.998047 31.998047 19.641047 31.998047 15.498047 C 31.998047 11.842047 29.377109 8.8045781 25.912109 8.1425781 C 25.475109 3.5796252 21.676047 -2.3684758e-15 16.998047 0 z M 16.998047 2 C 20.598047 2 23.573875 4.7229848 23.921875 8.3339844 C 24.044875 9.7659844 24.045109 9.7664217 25.537109 10.107422 C 28.12311 10.601422 29.998047 12.869047 29.998047 15.498047 C 29.998047 18.531047 27.531047 20.998047 24.498047 20.998047 L 24.498047 21 L 6.5 21 C 4.019 20.998 2 18.980047 2 16.498047 C 2 14.898047 2.8429062 13.452859 4.2539062 12.630859 C 5.6249063 11.843859 5.7175781 11.687435 5.1425781 10.273438 C 5.0455781 9.9824355 5 9.7309531 5 9.5019531 C 5 8.1229531 6.121 7.0019531 7.5 7.0019531 C 7.5 7.0019531 8.1545625 6.9534727 8.8515625 7.2304688 C 9.9985629 7.6874687 10.124016 7.2512686 10.666016 6.0722656 C 11.813016 3.5992652 14.298047 2 16.998047 2 z M 16.355469 6.75 C 15.847862 6.75 15.4375 7.1402892 15.4375 7.6230469 L 15.4375 16.019531 L 13.3125 14 C 13.131344 13.827711 12.914986 13.746094 12.677734 13.746094 C 12.225301 13.746094 11.757812 14.102042 11.757812 14.621094 C 11.757812 14.85329 11.847454 15.053866 12.025391 15.222656 L 15.683594 18.703125 C 15.834405 18.846553 16.020282 18.992188 16.355469 18.992188 C 16.690655 18.992188 16.852741 18.87142 17.021484 18.710938 L 20.6875 15.222656 C 20.865438 15.053866 20.955078 14.85329 20.955078 14.621094 C 20.955078 14.101606 20.487587 13.746094 20.035156 13.746094 C 19.797905 13.746094 19.581549 13.827707 19.400391 14 L 17.275391 16.019531 L 17.275391 7.6230469 C 17.275391 7.1402892 16.863076 6.75 16.355469 6.75 z "
     id="cloud" /></svg>