<?xml version="1.0" encoding="UTF-8" standalone="no"?>
<!-- Created with Inkscape (http://www.inkscape.org/) -->

<svg
   xmlns:dc="http://purl.org/dc/elements/1.1/"
   xmlns:cc="http://creativecommons.org/ns#"
   xmlns:rdf="http://www.w3.org/1999/02/22-rdf-syntax-ns#"
   xmlns:svg="http://www.w3.org/2000/svg"
   xmlns="http://www.w3.org/2000/svg"
   xmlns:sodipodi="http://sodipodi.sourceforge.net/DTD/sodipodi-0.dtd"
   xmlns:inkscape="http://www.inkscape.org/namespaces/inkscape"
   width="129.77745mm"
   height="55.483585mm"
   viewBox="0 0 459.84136 196.59538"
   id="svg3627"
   version="1.1"
   inkscape:version="0.91 r13725"
   sodipodi:docname="logo-text.svg">
  <defs
     id="defs3629">
    <clipPath
       clipPathUnits="userSpaceOnUse"
       id="clipPath3389">
      <path
         d="m 0,595.275 595.275,0 L 595.275,0 0,0 0,595.275 Z"
         id="path3391"
         inkscape:connector-curvature="0" />
    </clipPath>
    <radialGradient
       fx="0"
       fy="0"
       cx="0"
       cy="0"
       r="1"
       gradientUnits="userSpaceOnUse"
       gradientTransform="matrix(65.086281,0,0,-65.086281,297.63721,455.57227)"
       spreadMethod="pad"
       id="radialGradient3377">
      <stop
         style="stop-opacity:1;stop-color:#4a4a49"
         offset="0"
         id="stop3379" />
      <stop
         style="stop-opacity:1;stop-color:#1d1d1b"
         offset="1"
         id="stop3381" />
    </radialGradient>
  </defs>
  <sodipodi:namedview
     id="base"
     pagecolor="#ffffff"
     bordercolor="#666666"
     borderopacity="1.0"
     inkscape:pageopacity="0.0"
     inkscape:pageshadow="2"
     inkscape:zoom="0.35"
     inkscape:cx="247.77783"
     inkscape:cy="86.86912"
     inkscape:document-units="px"
     inkscape:current-layer="layer1"
     showgrid="false"
     fit-margin-top="0"
     fit-margin-left="0"
     fit-margin-right="0"
     fit-margin-bottom="0"
     inkscape:window-width="636"
     inkscape:window-height="1037"
     inkscape:window-x="1280"
     inkscape:window-y="20"
     inkscape:window-maximized="0" />
  <metadata
     id="metadata3632">
    <rdf:RDF>
      <cc:Work
         rdf:about="">
        <dc:format>image/svg+xml</dc:format>
        <dc:type
           rdf:resource="http://purl.org/dc/dcmitype/StillImage" />
        <dc:title></dc:title>
      </cc:Work>
    </rdf:RDF>
  </metadata>
  <g
     inkscape:label="Layer 1"
     inkscape:groupmode="layer"
     id="layer1"
     transform="translate(-127.22217,-422.63595)">
    <g
       transform="matrix(1.25,0,0,-1.25,-15.307079,1041.8997)"
       id="g3367">
      <g
         id="g3369">
        <g
           id="g3375">
          <path
             d="m 326.443,492.884 c -6.873,-2.532 -12.74,-6.78 -18.409,-11.319 l 0,0 c -2.018,-1.617 -3.774,-3.508 -5.538,-5.389 l 0,0 c -0.632,-0.676 -2.057,-2.224 -2.057,-2.224 l 0,0 c 0,0 0.807,-0.975 1.099,-1.323 l 0,0 c 4.065,-4.819 8.494,-9.344 12.773,-13.973 l 0,0 c 0.005,-0.007 0.01,-0.012 0.016,-0.019 l 0,0 c 8.22,8.906 19.876,19.929 33.111,14.97 l 0,0 c 12.382,-4.64 16.497,-20.672 7.755,-30.635 l 0,0 c -4.232,-4.824 -10.58,-7.174 -16.933,-6.46 l 0,0 c -7.882,0.886 -14.49,6.067 -19.968,11.449 l 0,0 c -6.421,6.31 -12.09,13.427 -17.94,20.259 l 0,0 c -9.229,10.783 -19.973,21.514 -33.99,25.559 l 0,0 c -14.904,4.299 -31.188,-0.005 -41.592,-11.619 l 0,0 c -9.456,-10.556 -12.59,-25.767 -8.078,-39.199 l 0,0 c 3.965,-11.8 13.515,-21.307 25.331,-25.222 l 0,0 c 6.394,-2.12 13.302,-2.556 19.921,-1.322 l 0,0 c 7.845,1.463 15.011,5.277 21.286,10.118 l 0,0 c 2.038,1.573 4.077,3.174 5.952,4.941 l 0,0 c 1.166,1.1 2.278,2.256 3.379,3.418 l 0,0 c 0.114,0.121 1.168,1.057 1.024,1.241 l 0,0 c -0.198,0.251 -0.363,0.475 -0.57,0.713 l 0,0 c -2.072,2.389 -3.979,4.917 -5.934,7.408 l 0,0 c -2.14,2.729 -4.1,5.325 -6.255,8.026 l 0,0 c -5.119,-5.33 -10.738,-10.866 -17.574,-13.933 l 0,0 c -6.295,-2.824 -13.53,-2.637 -19.344,1.24 l 0,0 c -3.45,2.299 -6.043,5.673 -7.45,9.506 l 0,0 22.09,0 0,13.001 -22.131,0 c 1.348,3.708 3.825,6.992 7.107,9.279 l 0,0 c 5.479,3.818 12.476,4.328 18.675,2.058 l 0,0 c 7.752,-2.837 13.919,-9.103 19.348,-15.091 l 0,0 c 5.338,-5.889 10.329,-12.084 15.594,-18.04 l 0,0 c 9.976,-11.285 22.112,-21.97 37.578,-24.155 l 0,0 c 12.955,-1.828 26.149,2.655 35.112,12.23 l 0,0 c 6.946,7.419 10.869,17.382 10.784,27.55 l 0,0 c -0.201,12.5 -6.186,24.335 -16.273,31.771 l 0,0 c -6.939,5.118 -15.295,7.713 -23.719,7.713 l 0,0 c -4.787,0 -9.596,-0.838 -14.18,-2.527"
             style="fill:url(#radialGradient3377);stroke:none"
             id="path3383"
             inkscape:connector-curvature="0" />
        </g>
      </g>
    </g>
    <g
       transform="matrix(1.25,0,0,-1.25,-15.307079,1041.8997)"
       id="g3385">
      <g
         id="g3387"
         clip-path="url(#clipPath3389)">
        <g
           id="g3393"
           transform="translate(136.3594,356.3657)">
          <path
             d="m 0,0 c -0.41,6.332 -3.4,11.373 -9.321,11.373 -4.807,0 -9.38,-3.752 -10.142,-11.373 L 0,0 Z m -22.336,-2.169 c 0,10.67 6.507,16.005 13.073,16.005 7.27,0 12.194,-6.097 12.194,-15.771 l 0,-0.41 -22.453,0 c 0,-8.383 4.631,-13.425 10.318,-13.425 4.808,0 7.562,2.287 9.908,6.39 l 2.051,-1.289 c -2.521,-4.632 -6.155,-7.562 -12.135,-7.562 -6.917,0 -12.956,5.92 -12.956,16.062"
             style="fill:#000000;fill-opacity:1;fill-rule:nonzero;stroke:none"
             id="path3395"
             inkscape:connector-curvature="0" />
        </g>
        <g
           id="g3397"
           transform="translate(153.0664,354.7241)">
          <path
             d="m 0,0 -10.376,14.832 3.224,0 8.676,-12.662 8.735,12.662 3.166,0 L 2.99,0.06 l 11.197,-16.005 -3.224,0 -9.497,13.776 -9.497,-13.776 -3.166,0 L 0,0 Z"
             style="fill:#000000;fill-opacity:1;fill-rule:nonzero;stroke:none"
             id="path3399"
             inkscape:connector-curvature="0" />
        </g>
        <g
           id="g3401"
           transform="translate(174.7578,345.6382)">
          <path
             d="m 0,0 0,21.397 -5.393,0 0,2.521 5.393,0 0,11.197 2.814,0 0,-11.197 8.032,0 0,-2.521 -8.032,0 0,-20.987 c 0,-3.283 1.114,-5.159 4.983,-5.159 1.173,0 2.345,0.117 3.224,0.41 l 0,-2.638 C 10.025,-7.152 8.853,-7.27 7.562,-7.27 2.462,-7.27 0,-5.218 0,0"
             style="fill:#000000;fill-opacity:1;fill-rule:nonzero;stroke:none"
             id="path3403"
             inkscape:connector-curvature="0" />
        </g>
        <g
           id="g3405"
           transform="translate(211.8081,356.3657)">
          <path
             d="m 0,0 c -0.41,6.332 -3.4,11.373 -9.321,11.373 -4.807,0 -9.38,-3.752 -10.142,-11.373 L 0,0 Z m -22.336,-2.169 c 0,10.67 6.507,16.005 13.073,16.005 7.27,0 12.194,-6.097 12.194,-15.771 l 0,-0.41 -22.453,0 c 0,-8.383 4.631,-13.425 10.318,-13.425 4.807,0 7.562,2.287 9.908,6.39 l 2.051,-1.289 c -2.521,-4.632 -6.155,-7.562 -12.135,-7.562 -6.917,0 -12.956,5.92 -12.956,16.062"
             style="fill:#000000;fill-opacity:1;fill-rule:nonzero;stroke:none"
             id="path3407"
             inkscape:connector-curvature="0" />
        </g>
        <g
           id="g3409"
           transform="translate(221.3638,369.5562)">
          <path
             d="m 0,0 2.814,0 0,-5.1 c 3.4,3.224 7.387,5.746 11.901,5.746 6.39,0 9.321,-3.518 9.321,-9.087 l 0,-22.336 -2.814,0 0,21.984 c 0,4.689 -2.052,6.976 -6.742,6.976 -4.279,0 -7.855,-2.228 -11.666,-5.863 l 0,-23.097 -2.814,0 L 0,0 Z"
             style="fill:#000000;fill-opacity:1;fill-rule:nonzero;stroke:none"
             id="path3411"
             inkscape:connector-curvature="0" />
        </g>
        <g
           id="g3413"
           transform="translate(275.1816,346.2241)">
          <path
             d="m 0,0 0,16.004 c -3.458,3.517 -6.566,5.511 -10.552,5.511 -5.394,0 -10.025,-4.104 -10.025,-13.542 0,-9.322 4.749,-13.484 10.142,-13.484 4.163,0 6.977,1.993 10.435,5.511 m -23.391,7.914 c 0,10.787 5.863,16.064 13.015,16.064 4.221,0 7.914,-2.405 10.376,-5.16 l 0,17.119 2.814,0 0,-35.761 c 0,-3.752 0.235,-6.038 0.938,-7.621 l -3.048,0 C 0.352,-6.331 0,-4.455 0,-2.814 c -2.638,-2.755 -5.862,-5.159 -10.494,-5.159 -7.093,0 -12.897,5.1 -12.897,15.887"
             style="fill:#000000;fill-opacity:1;fill-rule:nonzero;stroke:none"
             id="path3415"
             inkscape:connector-curvature="0" />
        </g>
        <g
           id="g3417"
           transform="translate(306.957,356.3657)">
          <path
             d="m 0,0 c -0.41,6.332 -3.399,11.373 -9.321,11.373 -4.807,0 -9.38,-3.752 -10.142,-11.373 L 0,0 Z m -22.335,-2.169 c 0,10.67 6.507,16.005 13.073,16.005 7.27,0 12.194,-6.097 12.194,-15.771 l 0,-0.41 -22.453,0 c 0,-8.383 4.631,-13.425 10.317,-13.425 4.808,0 7.563,2.287 9.908,6.39 l 2.052,-1.289 c -2.522,-4.632 -6.155,-7.562 -12.135,-7.562 -6.918,0 -12.956,5.92 -12.956,16.062"
             style="fill:#000000;fill-opacity:1;fill-rule:nonzero;stroke:none"
             id="path3419"
             inkscape:connector-curvature="0" />
        </g>
        <g
           id="g3421"
           transform="translate(338.2041,346.2241)">
          <path
             d="m 0,0 0,16.004 c -3.459,3.517 -6.565,5.511 -10.552,5.511 -5.393,0 -10.025,-4.104 -10.025,-13.542 0,-9.322 4.749,-13.484 10.142,-13.484 4.163,0 6.976,1.993 10.435,5.511 m -23.391,7.914 c 0,10.787 5.863,16.064 13.015,16.064 4.221,0 7.914,-2.405 10.376,-5.16 l 0,17.119 2.814,0 0,-35.761 c 0,-3.752 0.235,-6.038 0.938,-7.621 l -3.048,0 C 0.352,-6.331 0,-4.455 0,-2.814 c -2.638,-2.755 -5.862,-5.159 -10.493,-5.159 -7.094,0 -12.898,5.1 -12.898,15.887"
             style="fill:#000000;fill-opacity:1;fill-rule:nonzero;stroke:none"
             id="path3423"
             inkscape:connector-curvature="0" />
        </g>
        <g
           id="g3425"
           transform="translate(360.5996,369.5562)">
          <path
             d="m 0,0 2.813,0 0,-5.1 c 3.401,3.224 7.036,5.746 11.549,5.746 5.218,0 7.68,-2.405 8.56,-5.804 3.517,3.223 7.445,5.804 11.9,5.804 6.332,0 8.911,-3.518 8.911,-9.087 l 0,-22.336 -2.814,0 0,21.984 c 0,4.689 -1.699,6.976 -6.39,6.976 -4.045,0 -7.445,-2.228 -11.256,-5.863 l 0,-23.097 -2.813,0 0,21.984 c 0,4.689 -1.642,6.976 -6.391,6.976 -3.986,0 -7.445,-2.228 -11.256,-5.863 l 0,-23.097 -2.813,0 L 0,0 Z"
             style="fill:#000000;fill-opacity:1;fill-rule:nonzero;stroke:none"
             id="path3427"
             inkscape:connector-curvature="0" />
        </g>
        <path
           d="m 412.777,369.556 2.813,0 0,-30.777 -2.813,0 0,30.777 z m -0.117,11.432 3.048,0 0,-3.575 -3.048,0 0,3.575 z"
           style="fill:#000000;fill-opacity:1;fill-rule:nonzero;stroke:none"
           id="path3429"
           inkscape:connector-curvature="0" />
        <g
           id="g3431"
           transform="translate(424.3262,369.5562)">
          <path
             d="m 0,0 2.813,0 0,-5.1 c 3.401,3.224 7.387,5.746 11.901,5.746 6.39,0 9.321,-3.518 9.321,-9.087 l 0,-22.336 -2.813,0 0,21.984 c 0,4.689 -2.052,6.976 -6.743,6.976 -4.279,0 -7.855,-2.228 -11.666,-5.863 l 0,-23.097 -2.813,0 L 0,0 Z"
             style="fill:#000000;fill-opacity:1;fill-rule:nonzero;stroke:none"
             id="path3433"
             inkscape:connector-curvature="0" />
        </g>
        <g
           id="g3435"
           transform="translate(478.1445,346.2241)">
          <path
             d="m 0,0 0,16.004 c -3.459,3.517 -6.565,5.511 -10.552,5.511 -5.393,0 -10.025,-4.104 -10.025,-13.542 0,-9.322 4.749,-13.484 10.142,-13.484 4.163,0 6.976,1.993 10.435,5.511 m -23.391,7.914 c 0,10.787 5.863,16.064 13.015,16.064 4.221,0 7.914,-2.405 10.376,-5.16 l 0,17.119 2.814,0 0,-35.761 c 0,-3.752 0.235,-6.038 0.938,-7.621 l -3.048,0 C 0.352,-6.331 0,-4.455 0,-2.814 c -2.638,-2.755 -5.862,-5.159 -10.493,-5.159 -7.094,0 -12.898,5.1 -12.898,15.887"
             style="fill:#000000;fill-opacity:1;fill-rule:nonzero;stroke:none"
             id="path3437"
             inkscape:connector-curvature="0" />
        </g>
      </g>
    </g>
  </g>
</svg>
