<?xml version="1.0" encoding="UTF-8" standalone="no"?>
<!-- Created with Inkscape (http://www.inkscape.org/) -->

<svg
   xmlns:osb="http://www.openswatchbook.org/uri/2009/osb"
   xmlns:dc="http://purl.org/dc/elements/1.1/"
   xmlns:cc="http://creativecommons.org/ns#"
   xmlns:rdf="http://www.w3.org/1999/02/22-rdf-syntax-ns#"
   xmlns:svg="http://www.w3.org/2000/svg"
   xmlns="http://www.w3.org/2000/svg"
   xmlns:xlink="http://www.w3.org/1999/xlink"
   xmlns:sodipodi="http://sodipodi.sourceforge.net/DTD/sodipodi-0.dtd"
   xmlns:inkscape="http://www.inkscape.org/namespaces/inkscape"
   id="svg3360"
   version="1.1"
   inkscape:version="0.91 r13725"
   xml:space="preserve"
   width="207.44682"
   height="99.59623"
   viewBox="0 0 207.44682 99.59623"
   sodipodi:docname="logo-inverse.svg"
   inkscape:export-filename="/home/ttiurani/devel/extendedmind/frontend/cordova/app/assets/icons/android/ic_popup_reminder_2.png"
   inkscape:export-xdpi="90"
   inkscape:export-ydpi="90"><metadata
     id="metadata3366"><rdf:RDF><cc:Work
         rdf:about=""><dc:format>image/svg+xml</dc:format><dc:type
           rdf:resource="http://purl.org/dc/dcmitype/StillImage" /><dc:title></dc:title></cc:Work></rdf:RDF></metadata><defs
     id="defs3364"><linearGradient
       id="linearGradient4405"
       osb:paint="solid"><stop
         style="stop-color:#ffffff;stop-opacity:1;"
         offset="0"
         id="stop4407" /></linearGradient><radialGradient
       fx="0"
       fy="0"
       cx="0"
       cy="0"
       r="1"
       gradientUnits="userSpaceOnUse"
       gradientTransform="matrix(65.086281,0,0,-65.086281,297.63721,455.57227)"
       spreadMethod="pad"
       id="radialGradient3382"><stop
         style="stop-opacity:1;stop-color:#4a4a49"
         offset="0"
         id="stop3384" /><stop
         style="stop-opacity:1;stop-color:#1d1d1b"
         offset="1"
         id="stop3386" /></radialGradient><clipPath
       clipPathUnits="userSpaceOnUse"
       id="clipPath3394"><path
         d="m 0,595.275 595.275,0 L 595.275,0 0,0 0,595.275 Z"
         id="path3396"
         inkscape:connector-curvature="0" /></clipPath><radialGradient
       fx="0"
       fy="0"
       cx="0"
       cy="0"
       r="1"
       gradientUnits="userSpaceOnUse"
       gradientTransform="matrix(65.086449,0,0,-65.086449,297.91406,195.45703)"
       spreadMethod="pad"
       id="radialGradient3454"><stop
         style="stop-opacity:1;stop-color:#ffffff"
         offset="0"
         id="stop3456" /><stop
         style="stop-opacity:1;stop-color:#ffffff"
         offset="0.264429"
         id="stop3458" /><stop
         style="stop-opacity:1;stop-color:#dcdcdb"
         offset="1"
         id="stop3460" /></radialGradient><clipPath
       clipPathUnits="userSpaceOnUse"
       id="clipPath3468"><path
         d="m 0,595.275 595.275,0 L 595.275,0 0,0 0,595.275 Z"
         id="path3470"
         inkscape:connector-curvature="0" /></clipPath><radialGradient
       fx="0"
       fy="0"
       cx="0"
       cy="0"
       r="1"
       gradientUnits="userSpaceOnUse"
       gradientTransform="matrix(65.086449,0,0,-65.086449,297.91406,195.45703)"
       spreadMethod="pad"
       id="radialGradient3454-8"><stop
         style="stop-opacity:1;stop-color:#ffffff"
         offset="0"
         id="stop3456-4" /><stop
         style="stop-opacity:1;stop-color:#ffffff"
         offset="0.264429"
         id="stop3458-0" /><stop
         style="stop-opacity:1;stop-color:#dcdcdb"
         offset="1"
         id="stop3460-2" /></radialGradient><linearGradient
       inkscape:collect="always"
       xlink:href="#linearGradient4405"
       id="linearGradient4409"
       x1="214.9359"
       y1="195.45752"
       x2="380.89334"
       y2="195.45752"
       gradientUnits="userSpaceOnUse" /><linearGradient
       inkscape:collect="always"
       xlink:href="#linearGradient4405"
       id="linearGradient4411"
       gradientUnits="userSpaceOnUse"
       x1="214.9359"
       y1="195.45752"
       x2="380.89334"
       y2="195.45752" /></defs><sodipodi:namedview
     pagecolor="#ffffff"
     bordercolor="#666666"
     borderopacity="1"
     objecttolerance="10"
     gridtolerance="10"
     guidetolerance="10"
     inkscape:pageopacity="0"
     inkscape:pageshadow="2"
     inkscape:window-width="1916"
     inkscape:window-height="1037"
     id="namedview3362"
     showgrid="false"
     inkscape:zoom="1.1436731"
     inkscape:cx="-76.744393"
     inkscape:cy="-6.0958363"
     inkscape:window-x="0"
     inkscape:window-y="20"
     inkscape:window-maximized="0"
     inkscape:current-layer="g3446"
     fit-margin-top="0"
     fit-margin-left="0"
     fit-margin-right="0"
     fit-margin-bottom="0" /><g
     id="g3368"
     inkscape:groupmode="layer"
     inkscape:label="paavo - extendedmind_logo_final"
     transform="matrix(1.25,0,0,-1.25,-266.92112,477.73892)"><g
       id="g3444"
       transform="translate(-1.3990012,146.89512)"
       inkscape:export-filename="/home/ttiurani/devel/extendedmind/frontend/cordova/app/assets/icons/android/ic_popup_reminder.png"
       inkscape:export-xdpi="90"
       inkscape:export-ydpi="90"><g
         id="g3446"><g
           id="g3452"
           inkscape:export-filename="/home/ttiurani/devel/extendedmind/frontend/cordova/app/assets/icons/android/ic_popup_reminder_2.png"
           inkscape:export-xdpi="90"
           inkscape:export-ydpi="90"
           style="fill:url(#linearGradient4409);fill-opacity:1"><path
             d="m 225.047,222.045 c -9.456,-10.555 -12.591,-25.768 -8.079,-39.199 l 0,0 c 3.966,-11.799 13.517,-21.307 25.332,-25.223 l 0,0 c 6.394,-2.119 13.302,-2.555 19.92,-1.32 l 0,0 c 7.847,1.463 15.012,5.277 21.288,10.117 l 0,0 c 2.038,1.574 4.076,3.173 5.951,4.941 l 0,0 c 1.166,1.1 2.28,2.256 3.38,3.418 l 0,0 c 0.113,0.122 1.168,1.057 1.024,1.24 l 0,0 c -0.198,0.252 -0.364,0.475 -0.571,0.716 l 0,0 c -2.071,2.388 -3.98,4.916 -5.933,7.406 l 0,0 c -2.14,2.73 -4.101,5.326 -6.256,8.027 l 0,0 c -5.119,-5.33 -10.738,-10.868 -17.575,-13.934 l 0,0 c -6.294,-2.824 -13.529,-2.636 -19.344,1.24 l 0,0 c -3.448,2.299 -6.042,5.674 -7.45,9.506 l 0,0 22.092,0 0,13.001 -22.131,0 c 1.347,3.709 3.824,6.992 7.106,9.279 l 0,0 c 5.479,3.818 12.477,4.328 18.676,2.058 l 0,0 c 7.752,-2.838 13.918,-9.104 19.347,-15.091 l 0,0 c 5.338,-5.889 10.33,-12.084 15.594,-18.04 l 0,0 c 9.976,-11.285 22.113,-21.971 37.578,-24.154 l 0,0 c 12.955,-1.83 26.149,2.654 35.113,12.228 l 0,0 c 6.946,7.421 10.868,17.384 10.783,27.551 l 0,0 c -0.201,12.5 -6.186,24.334 -16.272,31.772 l 0,0 c -10.884,8.025 -25.248,9.846 -37.9,5.186 l 0,0 c -6.873,-2.534 -12.74,-6.78 -18.409,-11.321 l 0,0 c -2.017,-1.615 -3.773,-3.506 -5.538,-5.389 l 0,0 c -0.632,-0.676 -2.057,-2.222 -2.057,-2.222 l 0,0 c 0,0 0.807,-0.976 1.099,-1.325 l 0,0 c 4.066,-4.817 8.494,-9.343 12.773,-13.972 l 0,0 c 0.006,-0.006 0.011,-0.012 0.017,-0.017 l 0,0 c 8.221,8.903 19.875,19.928 33.11,14.969 l 0,0 c 12.382,-4.64 16.497,-20.673 7.755,-30.636 l 0,0 c -4.232,-4.824 -10.58,-7.173 -16.933,-6.461 l 0,0 c -7.882,0.887 -14.49,6.069 -19.968,11.449 l 0,0 c -6.42,6.311 -12.09,13.428 -17.94,20.26 l 0,0 c -9.229,10.784 -19.973,21.514 -33.99,25.559 l 0,0 c -3.796,1.095 -7.683,1.632 -11.538,1.632 l 0,0 c -11.281,0 -22.3,-4.594 -30.054,-13.251"
             style="fill:url(#linearGradient4411);fill-opacity:1;stroke:none"
             id="path3462"
             inkscape:connector-curvature="0" /></g></g></g></g></svg>