<?xml version="1.0" encoding="UTF-8" standalone="no"?>
<svg
   xmlns:dc="http://purl.org/dc/elements/1.1/"
   xmlns:cc="http://creativecommons.org/ns#"
   xmlns:rdf="http://www.w3.org/1999/02/22-rdf-syntax-ns#"
   xmlns:svg="http://www.w3.org/2000/svg"
   xmlns="http://www.w3.org/2000/svg"
   xmlns:sodipodi="http://sodipodi.sourceforge.net/DTD/sodipodi-0.dtd"
   xmlns:inkscape="http://www.inkscape.org/namespaces/inkscape"
   enable-background="new 0 0 32 32"
   height="23"
   id="Layer_1"
   version="1.1"
   viewBox="0 0 31.998047 23"
   width="31.998047"
   xml:space="preserve"
   inkscape:version="0.91 r13725"
   sodipodi:docname="offline.svg"><metadata
     id="metadata3374"><rdf:RDF><cc:Work
         rdf:about=""><dc:format>image/svg+xml</dc:format><dc:type
           rdf:resource="http://purl.org/dc/dcmitype/StillImage" /><dc:title></dc:title></cc:Work></rdf:RDF></metadata><defs
     id="defs3372" /><sodipodi:namedview
     pagecolor="#ffffff"
     bordercolor="#666666"
     borderopacity="1"
     objecttolerance="10"
     gridtolerance="10"
     guidetolerance="10"
     inkscape:pageopacity="0"
     inkscape:pageshadow="2"
     inkscape:window-width="1916"
     inkscape:window-height="1037"
     id="namedview3370"
     showgrid="false"
     inkscape:zoom="6.6640625"
     inkscape:cx="15.996094"
     inkscape:cy="8"
     inkscape:window-x="0"
     inkscape:window-y="20"
     inkscape:window-maximized="0"
     inkscape:current-layer="Layer_1"
     fit-margin-top="0"
     fit-margin-left="0"
     fit-margin-right="0"
     fit-margin-bottom="0" /><path
     d="M 16.998047,0 C 13.379047,0 10.280563,2.1484687 8.8515625,5.230469 8.4215625,5.094469 7.975,5 7.5,5 5.015,5 3,7.016 3,9.5 3,9.994 3.097141,10.461297 3.2441407,10.904297 1.3111406,12.031297 0,14.099047 0,16.498047 c 0,3.59 2.91,6.5 6.5,6.5 l 0,0.002 L 24.498047,23 l 0,-0.002 c 4.143,0 7.5,-3.357 7.5,-7.5 0,-3.656 -2.620938,-6.693469 -6.085938,-7.355469 C 25.475109,3.5795781 21.676047,0 16.998047,0 Z m 0,2 c 3.6,0 6.575828,2.7229844 6.923828,6.333984 0.123,1.432 0.123234,1.432438 1.615234,1.773438 2.586001,0.494 4.460938,2.761625 4.460938,5.390625 0,3.033 -2.467,5.5 -5.5,5.5 l 0,0.002 L 6.5,21 C 4.019,20.998 2,18.980047 2,16.498047 c 0,-1.6 0.8429063,-3.045188 2.2539063,-3.867188 1.371,-0.787 1.4636718,-0.943422 0.8886718,-2.357421 C 5.0455781,9.982437 5,9.730953 5,9.501953 c 0,-1.379 1.121,-2.5 2.5,-2.5 0,0 0.6545625,-0.04848 1.3515625,0.228516 1.1470004,0.457 1.2724535,0.0208 1.8144535,-1.158203 C 11.813016,3.5992656 14.298047,2 16.998047,2 Z m -5.189453,6.351562 c -0.195645,0 -0.385905,0.06667 -0.513672,0.201172 -0.28748,0.269002 -0.28748,0.747214 0,0.986328 l 3.449219,3.556641 -3.482422,3.556641 c -0.287479,0.269004 -0.287479,0.747214 0,0.986328 0.287478,0.269003 0.799151,0.269003 1.054687,0 l 3.482422,-3.28711 3.449219,3.28711 c 0.287477,0.269003 0.79915,0.269003 1.054688,0 0.287478,-0.269003 0.287478,-0.747213 0,-0.986328 l -3.451172,-3.556641 3.482422,-3.556641 c 0.287478,-0.269004 0.287478,-0.747215 0,-0.986328 -0.28748,-0.269003 -0.799152,-0.269003 -1.054688,0 l -3.480469,3.28711 -3.451172,-3.28711 C 12.203917,8.418233 12.004239,8.351562 11.808594,8.351562 Z"
     id="cloud"
     inkscape:connector-curvature="0" /></svg>