<?xml version="1.0" encoding="UTF-8" standalone="no"?>
<svg
   xmlns:dc="http://purl.org/dc/elements/1.1/"
   xmlns:cc="http://creativecommons.org/ns#"
   xmlns:rdf="http://www.w3.org/1999/02/22-rdf-syntax-ns#"
   xmlns:svg="http://www.w3.org/2000/svg"
   xmlns="http://www.w3.org/2000/svg"
   xmlns:sodipodi="http://sodipodi.sourceforge.net/DTD/sodipodi-0.dtd"
   xmlns:inkscape="http://www.inkscape.org/namespaces/inkscape"
   height="587.59998"
   id="Layer_1"
   version="1.1"
   viewBox="0 0 581.40002 587.59998"
   width="581.40002"
   xml:space="preserve"
   inkscape:version="0.91 r13725"
   sodipodi:docname="play.svg"><metadata
     id="metadata3414"><rdf:RDF><cc:Work
         rdf:about=""><dc:format>image/svg+xml</dc:format><dc:type
           rdf:resource="http://purl.org/dc/dcmitype/StillImage" /><dc:title></dc:title></cc:Work></rdf:RDF></metadata><defs
     id="defs3412" /><sodipodi:namedview
     pagecolor="#ffffff"
     bordercolor="#666666"
     borderopacity="1"
     objecttolerance="10"
     gridtolerance="10"
     guidetolerance="10"
     inkscape:pageopacity="0"
     inkscape:pageshadow="2"
     inkscape:window-width="1916"
     inkscape:window-height="1037"
     id="namedview3410"
     showgrid="false"
     fit-margin-top="0"
     fit-margin-left="0"
     fit-margin-right="0"
     fit-margin-bottom="0"
     inkscape:zoom="0.83300781"
     inkscape:cx="177.16417"
     inkscape:cy="147.51811"
     inkscape:window-x="0"
     inkscape:window-y="20"
     inkscape:window-maximized="0"
     inkscape:current-layer="Layer_1" /><path
     d="M 429.27136,281.68336 225.02432,179.69918 c -2.49438,-1.23095 -5.06215,-1.96951 -7.99673,-1.96951 -7.99674,0 -14.5262,5.53926 -14.5262,12.30948 l -0.0733,0 0,211.72333 0.0733,0 c 0,6.77023 6.52946,12.3095 14.5262,12.3095 3.00794,0 5.50235,-0.86166 8.21684,-2.09261 L 429.27136,310.11829 c 4.84206,-3.38511 7.92338,-8.49355 7.92338,-14.21747 0,-5.72391 -3.08132,-10.7708 -7.92338,-14.21746 z"
     id="path3408"
     inkscape:connector-curvature="0" /><g
     id="g3468"><g
       transform="translate(-15.3,-102.2)"
       id="CONTENT-1-"><g
         id="g10"><g
           id="check.png-copy-2"><g
             id="g13"><path
               inkscape:connector-curvature="0"
               id="path15"
               d="M 306,102.2 C 146.9,102.2 15.3,233.8 15.3,396 15.3,558.2 146.9,689.8 306,689.8 465.1,689.8 596.7,558.2 596.7,396 596.7,233.8 465.1,102.2 306,102.2 Z m 0,563.1 C 159.1,665.3 39.8,545.9 39.8,396 39.8,246.1 159.1,126.7 306,126.7 c 146.9,0 266.2,119.4 266.2,269.3 0,149.9 -119.3,269.3 -266.2,269.3 z" /></g></g></g><g
         enable-background="new    "
         id="check.png-copy-7-2-" /><g
         enable-background="new    "
         id="check.png-copy-10-2-" /></g></g></svg>