<?xml version="1.0" encoding="UTF-8" standalone="no"?>
<!-- Generator: Adobe Illustrator 17.1.0, SVG Export Plug-In . SVG Version: 6.00 Build 0)  -->

<svg
   xmlns:dc="http://purl.org/dc/elements/1.1/"
   xmlns:cc="http://creativecommons.org/ns#"
   xmlns:rdf="http://www.w3.org/1999/02/22-rdf-syntax-ns#"
   xmlns:svg="http://www.w3.org/2000/svg"
   xmlns="http://www.w3.org/2000/svg"
   xmlns:sodipodi="http://sodipodi.sourceforge.net/DTD/sodipodi-0.dtd"
   xmlns:inkscape="http://www.inkscape.org/namespaces/inkscape"
   version="1.1"
   id="Layer_2"
   x="0px"
   y="0px"
   viewBox="0 0 581.40002 587.59998"
   enable-background="new 0 0 612 792"
   xml:space="preserve"
   inkscape:version="0.91 r13725"
   sodipodi:docname="plus.svg"
   width="581.40002"
   height="587.59998"><metadata
     id="metadata23"><rdf:RDF><cc:Work
         rdf:about=""><dc:format>image/svg+xml</dc:format><dc:type
           rdf:resource="http://purl.org/dc/dcmitype/StillImage" /><dc:title></dc:title></cc:Work></rdf:RDF></metadata><defs
     id="defs21" /><sodipodi:namedview
     pagecolor="#ffffff"
     bordercolor="#666666"
     borderopacity="1"
     objecttolerance="10"
     gridtolerance="10"
     guidetolerance="10"
     inkscape:pageopacity="0"
     inkscape:pageshadow="2"
     inkscape:window-width="956"
     inkscape:window-height="1037"
     id="namedview19"
     showgrid="false"
     fit-margin-top="0"
     fit-margin-left="0"
     fit-margin-right="0"
     fit-margin-bottom="0"
     inkscape:zoom="0.2979798"
     inkscape:cx="-249.60508"
     inkscape:cy="293.8"
     inkscape:window-x="960"
     inkscape:window-y="20"
     inkscape:window-maximized="0"
     inkscape:current-layer="Layer_2" /><g
     id="g3"
     transform="translate(-15.3,-102.2)"><path
       d="m 160.9,420.2 290.2,0 c 13.3,0 24.2,-10.9 24.2,-24.2 0,-13.3 -10.9,-24.2 -24.2,-24.2 l -290.2,0 c -13.3,0 -24.2,10.9 -24.2,24.2 0,13.3 10.9,24.2 24.2,24.2 z"
       id="path5"
       inkscape:connector-curvature="0" /><path
       d="m 281.8,250.9 0,290.2 c 0,13.3 10.9,24.2 24.2,24.2 13.3,0 24.2,-10.9 24.2,-24.2 l 0,-290.2 c 0,-13.3 -10.9,-24.2 -24.2,-24.2 -13.3,0 -24.2,10.9 -24.2,24.2 z"
       id="path7"
       inkscape:connector-curvature="0" /></g><g
     id="CONTENT-1-"
     transform="translate(-15.3,-102.2)"><g
       id="g10"><g
         id="check.png-copy-2"><g
           id="g13"><path
             d="M 306,102.2 C 146.9,102.2 15.3,233.8 15.3,396 15.3,558.2 146.9,689.8 306,689.8 465.1,689.8 596.7,558.2 596.7,396 596.7,233.8 465.1,102.2 306,102.2 Z m 0,563.1 C 159.1,665.3 39.8,545.9 39.8,396 39.8,246.1 159.1,126.7 306,126.7 c 146.9,0 266.2,119.4 266.2,269.3 0,149.9 -119.3,269.3 -266.2,269.3 z"
             id="path15"
             inkscape:connector-curvature="0" /></g></g></g><g
       id="check.png-copy-7-2-"
       enable-background="new    " /><g
       id="check.png-copy-10-2-"
       enable-background="new    " /></g></svg>