<?xml version="1.0" encoding="UTF-8" standalone="no"?>
<!-- Generator: Adobe Illustrator 17.1.0, SVG Export Plug-In . SVG Version: 6.00 Build 0)  -->

<svg
   xmlns:dc="http://purl.org/dc/elements/1.1/"
   xmlns:cc="http://creativecommons.org/ns#"
   xmlns:rdf="http://www.w3.org/1999/02/22-rdf-syntax-ns#"
   xmlns:svg="http://www.w3.org/2000/svg"
   xmlns="http://www.w3.org/2000/svg"
   xmlns:sodipodi="http://sodipodi.sourceforge.net/DTD/sodipodi-0.dtd"
   xmlns:inkscape="http://www.inkscape.org/namespaces/inkscape"
   version="1.1"
   id="Layer_1"
   x="0px"
   y="0px"
   viewBox="0 0 46 16.5"
   enable-background="new 0 0 46 32"
   xml:space="preserve"
   inkscape:version="0.91 r13725"
   sodipodi:docname="show-completed.svg"
   width="46"
   height="16.5"><metadata
     id="metadata17"><rdf:RDF><cc:Work
         rdf:about=""><dc:format>image/svg+xml</dc:format><dc:type
           rdf:resource="http://purl.org/dc/dcmitype/StillImage" /><dc:title></dc:title></cc:Work></rdf:RDF></metadata><defs
     id="defs15" /><sodipodi:namedview
     pagecolor="#ffffff"
     bordercolor="#666666"
     borderopacity="1"
     objecttolerance="10"
     gridtolerance="10"
     guidetolerance="10"
     inkscape:pageopacity="0"
     inkscape:pageshadow="2"
     inkscape:window-width="956"
     inkscape:window-height="1037"
     id="namedview13"
     showgrid="false"
     fit-margin-top="0"
     fit-margin-left="0"
     fit-margin-right="0"
     fit-margin-bottom="0"
     inkscape:zoom="7.375"
     inkscape:cx="23"
     inkscape:cy="8.3"
     inkscape:window-x="960"
     inkscape:window-y="20"
     inkscape:window-maximized="0"
     inkscape:current-layer="Layer_1" /><polygon
     points="25.4,15 23.9,16.5 31.4,24 31.4,24 31.4,24 46,9.3 44.6,7.8 31.4,21 "
     id="polygon3"
     style="fill:#1d1d1b"
     transform="translate(0,-7.8)" /><g
     id="g5"
     transform="translate(0,-7.8)"><path
       d="m 18.2,21.7 -16.8,0 C 0.6,21.7 0,22.3 0,23 c 0,0.7 0.7,1.3 1.4,1.3 l 16.8,0 c 0.8,0 1.4,-0.6 1.4,-1.3 0,-0.8 -0.6,-1.3 -1.4,-1.3 z"
       id="path7"
       inkscape:connector-curvature="0" /><path
       d="m 18.2,10.6 -16.8,0 c -0.8,0 -1.4,0.6 -1.4,1.3 0,0.7 0.7,1.3 1.4,1.3 l 16.8,0 c 0.8,0 1.4,-0.6 1.4,-1.3 0,-0.8 -0.6,-1.3 -1.4,-1.3 z"
       id="path9"
       inkscape:connector-curvature="0" /><path
       d="m 18.2,16.2 -16.8,0 c -0.8,0 -1.4,0.6 -1.4,1.3 0,0.7 0.7,1.3 1.4,1.3 l 16.8,0 c 0.8,0 1.4,-0.6 1.4,-1.3 0,-0.8 -0.6,-1.3 -1.4,-1.3 z"
       id="path11"
       inkscape:connector-curvature="0" /></g></svg>