<?xml version="1.0" encoding="UTF-8" standalone="no"?>
<!-- Generated by IcoMoon.io -->

<svg
   xmlns:dc="http://purl.org/dc/elements/1.1/"
   xmlns:cc="http://creativecommons.org/ns#"
   xmlns:rdf="http://www.w3.org/1999/02/22-rdf-syntax-ns#"
   xmlns:svg="http://www.w3.org/2000/svg"
   xmlns="http://www.w3.org/2000/svg"
   xmlns:sodipodi="http://sodipodi.sourceforge.net/DTD/sodipodi-0.dtd"
   xmlns:inkscape="http://www.inkscape.org/namespaces/inkscape"
   version="1.1"
   width="22"
   height="16.021484"
   viewBox="0 0 22 16.021484"
   id="svg2"
   inkscape:version="0.91 r13725"
   sodipodi:docname="sort-stop.svg">
  <metadata
     id="metadata11">
    <rdf:RDF>
      <cc:Work
         rdf:about="">
        <dc:format>image/svg+xml</dc:format>
        <dc:type
           rdf:resource="http://purl.org/dc/dcmitype/StillImage" />
        <dc:title></dc:title>
      </cc:Work>
    </rdf:RDF>
  </metadata>
  <defs
     id="defs9" />
  <sodipodi:namedview
     pagecolor="#ffffff"
     bordercolor="#666666"
     borderopacity="1"
     objecttolerance="10"
     gridtolerance="10"
     guidetolerance="10"
     inkscape:pageopacity="0"
     inkscape:pageshadow="2"
     inkscape:window-width="956"
     inkscape:window-height="1037"
     id="namedview7"
     showgrid="false"
     fit-margin-top="0"
     fit-margin-left="0"
     fit-margin-right="0"
     fit-margin-bottom="0"
     inkscape:zoom="27.812867"
     inkscape:cx="8.2946056"
     inkscape:cy="7.8552318"
     inkscape:window-x="960"
     inkscape:window-y="20"
     inkscape:window-maximized="0"
     inkscape:current-layer="svg2"
     inkscape:snap-page="true" />
  <g
     id="icomoon-ignore"
     transform="translate(-1,-3.9775664)" />
  <path
     style="fill:#000000"
     d="M 17.822266,0 15.988281,1.7734375 C 14.620279,0.68036173 12.888222,0.02148438 11,0.02148438 c -1.57,0 -3.025625,0.46132816 -4.265625,1.23632812 L 8.1953125,2.7167969 C 9.0353125,2.2767969 9.985,2.0214844 11,2.0214844 c 1.32291,0 2.541557,0.4336058 3.533203,1.1582031 L 6.0390625,11.396484 C 5.3837058,10.434877 5,9.2735742 5,8.0214844 l 3,0 -4,-4 -4,4 3,0 C 3,9.8143017 3.5966583,11.463305 4.5917969,12.796875 L 2.7050781,14.621093 4.1132812,16.007812 5.953125,14.228515 C 7.3296976,15.348937 9.0857213,16.021484 11,16.021484 c 1.57,0 3.025625,-0.459375 4.265625,-1.234375 l -1.460937,-1.458984 c -0.84,0.44 -1.789688,0.693359 -2.804688,0.693359 -1.3494578,0 -2.5897593,-0.449928 -3.5917969,-1.201172 L 15.917969,4.5898438 C 16.598484,5.56289 17,6.743338 17,8.0214844 l -3,0 4,3.9999996 4,-3.9999996 -3,0 C 19,6.2025579 18.386828,4.5329171 17.365234,3.1894532 L 19.230469,1.3847656 17.822266,0 Z"
     id="path5"
     inkscape:connector-curvature="0" />
</svg>
