<?xml version="1.0" encoding="UTF-8" standalone="no"?>
<!-- Generated by IcoMoon.io -->

<svg
   xmlns:dc="http://purl.org/dc/elements/1.1/"
   xmlns:cc="http://creativecommons.org/ns#"
   xmlns:rdf="http://www.w3.org/1999/02/22-rdf-syntax-ns#"
   xmlns:svg="http://www.w3.org/2000/svg"
   xmlns="http://www.w3.org/2000/svg"
   xmlns:sodipodi="http://sodipodi.sourceforge.net/DTD/sodipodi-0.dtd"
   xmlns:inkscape="http://www.inkscape.org/namespaces/inkscape"
   version="1.1"
   width="22"
   height="16"
   viewBox="0 0 22 16"
   id="svg2"
   inkscape:version="0.91 r13725"
   sodipodi:docname="sort.svg">
  <metadata
     id="metadata11">
    <rdf:RDF>
      <cc:Work
         rdf:about="">
        <dc:format>image/svg+xml</dc:format>
        <dc:type
           rdf:resource="http://purl.org/dc/dcmitype/StillImage" />
        <dc:title></dc:title>
      </cc:Work>
    </rdf:RDF>
  </metadata>
  <defs
     id="defs9" />
  <sodipodi:namedview
     pagecolor="#ffffff"
     bordercolor="#666666"
     borderopacity="1"
     objecttolerance="10"
     gridtolerance="10"
     guidetolerance="10"
     inkscape:pageopacity="0"
     inkscape:pageshadow="2"
     inkscape:window-width="956"
     inkscape:window-height="1037"
     id="namedview7"
     showgrid="false"
     fit-margin-top="0"
     fit-margin-left="0"
     fit-margin-right="0"
     fit-margin-bottom="0"
     inkscape:zoom="9.8333333"
     inkscape:cx="11"
     inkscape:cy="8"
     inkscape:window-x="960"
     inkscape:window-y="20"
     inkscape:window-maximized="0"
     inkscape:current-layer="svg2" />
  <g
     id="icomoon-ignore"
     transform="translate(-1,-4)" />
  <path
     d="m 19,8 3,0 -4,4 -4,-4 3,0 C 17,4.685 14.315,2 11,2 9.985,2 9.035,2.255 8.195,2.695 L 6.735,1.235 C 7.975,0.46 9.43,0 11,0 c 4.42,0 8,3.58 8,8 z M 5,8 c 0,3.315 2.685,6 6,6 1.015,0 1.965,-0.255 2.805,-0.695 l 1.46,1.46 C 14.025,15.54 12.57,16 11,16 6.58,16 3,12.42 3,8 L 0,8 4,4 8,8 5,8 Z"
     id="path5"
     inkscape:connector-curvature="0"
     style="fill:#000000" />
</svg>
