<?xml version="1.0" encoding="UTF-8" standalone="no"?>
<!-- Generator: Adobe Illustrator 17.1.0, SVG Export Plug-In . SVG Version: 6.00 Build 0)  -->

<svg
   xmlns:dc="http://purl.org/dc/elements/1.1/"
   xmlns:cc="http://creativecommons.org/ns#"
   xmlns:rdf="http://www.w3.org/1999/02/22-rdf-syntax-ns#"
   xmlns:svg="http://www.w3.org/2000/svg"
   xmlns="http://www.w3.org/2000/svg"
   xmlns:sodipodi="http://sodipodi.sourceforge.net/DTD/sodipodi-0.dtd"
   xmlns:inkscape="http://www.inkscape.org/namespaces/inkscape"
   version="1.1"
   id="Layer_1"
   x="0px"
   y="0px"
   viewBox="0 0 25.715315 23.799999"
   enable-background="new 0 0 26 24"
   xml:space="preserve"
   inkscape:version="0.91 r13725"
   sodipodi:docname="star.svg"
   width="25.715315"
   height="23.799999"><metadata
     id="metadata9"><rdf:RDF><cc:Work
         rdf:about=""><dc:format>image/svg+xml</dc:format><dc:type
           rdf:resource="http://purl.org/dc/dcmitype/StillImage" /><dc:title></dc:title></cc:Work></rdf:RDF></metadata><defs
     id="defs7" /><sodipodi:namedview
     pagecolor="#ffffff"
     bordercolor="#666666"
     borderopacity="1"
     objecttolerance="10"
     gridtolerance="10"
     guidetolerance="10"
     inkscape:pageopacity="0"
     inkscape:pageshadow="2"
     inkscape:window-width="956"
     inkscape:window-height="1037"
     id="namedview5"
     showgrid="false"
     fit-margin-top="0"
     fit-margin-left="0"
     fit-margin-right="0"
     fit-margin-bottom="0"
     inkscape:zoom="9.8333333"
     inkscape:cx="12.9"
     inkscape:cy="11.8"
     inkscape:window-x="960"
     inkscape:window-y="20"
     inkscape:window-maximized="0"
     inkscape:current-layer="Layer_1" /><path
     d="m 24.8,8.2 -0.3,0 -6.6,0 0,0 c -0.8,0 -1.5,-0.5 -1.7,-1.2 0,-0.1 0,-0.1 -0.1,-0.2 l -2,-6 L 14,0.6 C 13.9,0.3 13.4,0 12.9,0 c -0.6,0 -1,0.4 -1.2,0.8 l 0,0 -2,6 c 0,0 0,0 0,0 0,0.1 0,0.1 -0.1,0.2 C 9.3,7.7 8.7,8.2 7.9,8.2 l 0,0 -6.5,0 -0.4,0 C 0.4,8.3 0,8.8 0,9.4 c 0,0.4 0.2,0.7 0.5,0.9 0,0 0,0 0.1,0 l 5.3,3.8 0,0 c 0.5,0.3 0.8,0.9 0.8,1.5 0,0.1 0,0.3 0,0.4 0,0.1 -0.1,0.2 -0.1,0.3 l -2,6 c 0,0 0,0 0,0 l 0,0 c 0,0.1 -0.1,0.2 -0.1,0.3 0,0.7 0.6,1.2 1.2,1.2 0.2,0 0.4,-0.1 0.6,-0.2 l 0.2,-0.1 c 0,0 0,0 0,0 l 5.3,-3.7 c 0,0 0.1,-0.1 0.1,-0.1 0.3,-0.2 0.6,-0.3 1,-0.3 0.4,0 0.7,0.1 1,0.3 0.1,0 0.1,0.1 0.2,0.1 0,0 0,0 0,0 l 5.3,3.7 0.1,0.1 c 0,0 0,0 0,0 0.2,0.1 0.4,0.2 0.6,0.2 0.7,0 1.2,-0.5 1.2,-1.2 0,-0.1 0,-0.2 -0.1,-0.4 0,0 0,0 0,-0.1 l -2,-6 c 0,-0.1 -0.1,-0.2 -0.1,-0.2 0,-0.1 -0.1,-0.3 -0.1,-0.4 0,-0.6 0.3,-1.1 0.7,-1.4 0,0 0.1,-0.1 0.1,-0.1 l 5.3,-3.7 0,0 0.2,-0.1 C 25.6,10 25.7,9.7 25.7,9.3 25.8,8.8 25.4,8.3 24.8,8.2 Z"
     id="path3"
     inkscape:connector-curvature="0" /></svg>