<?xml version="1.0" encoding="utf-8"?>
<!-- Generator: Adobe Illustrator 16.0.0, SVG Export Plug-In . SVG Version: 6.00 Build 0)  -->
<!DOCTYPE svg PUBLIC "-//W3C//DTD SVG 1.1//EN" "http://www.w3.org/Graphics/SVG/1.1/DTD/svg11.dtd">
<svg version="1.1" id="Layer_1" xmlns="http://www.w3.org/2000/svg" xmlns:xlink="http://www.w3.org/1999/xlink" x="0px" y="0px"
	 width="512px" height="512px" viewBox="0 0 512 512" enable-background="new 0 0 512 512" xml:space="preserve">
<g>
	
		<path fill="#1D1D1B" stroke="#1D1D1B" stroke-width="9.2253" stroke-linecap="round" stroke-linejoin="round" stroke-miterlimit="10" d="
		M256.386,100.789L143.079,214.101H33.403c-10.189,0-18.451,8.261-18.451,18.451v49.585c0,10.186,8.261,18.455,18.451,18.455h109.68
		l113.303,113.307V100.789z"/>
	<path fill="#1D1D1B" d="M336.666,410.24c-2.361,0-4.722-0.9-6.523-2.702c-3.604-3.604-3.604-9.441,0-13.045
		c73.73-73.73,73.73-193.712,0-267.457c-3.604-3.604-3.604-9.441,0-13.044c3.604-3.604,9.441-3.604,13.045,0
		c80.929,80.937,80.929,212.618,0,293.546C341.386,409.34,339.025,410.24,336.666,410.24z"/>
	<path fill="#1D1D1B" d="M397.342,470.936c-2.361,0-4.722-0.901-6.523-2.703c-3.604-3.604-3.604-9.441,0-13.045
		c114.263-114.271,114.263-300.187,0-414.439c-3.604-3.604-3.604-9.442,0-13.045c3.604-3.604,9.441-3.604,13.045,0
		c121.451,121.446,121.451,319.068,0,440.529C402.062,470.034,399.701,470.936,397.342,470.936z"/>
</g>
</svg>
