<?xml version="1.0" ?><!DOCTYPE svg  PUBLIC '-//W3C//DTD SVG 1.1//EN'  'http://www.w3.org/Graphics/SVG/1.1/DTD/svg11.dtd'><svg enable-background="new 0 0 128 128" height="128px" id="Layer_1" version="1.1" viewBox="0 0 128 128" width="128px" xml:space="preserve" xmlns="http://www.w3.org/2000/svg" xmlns:xlink="http://www.w3.org/1999/xlink"><path d="M61.858,14.479L24,46H6c-3.3,0-6,2.7-6,6v23.999c0,3.3,2.7,6,6,6l18,0.001l37.858,31.521  c3.378,2.795,6.142,1.512,6.142-2.854V17.332C68,12.967,65.236,11.685,61.858,14.479z"/><path d="M111.07,64l15.465-15.464c1.953-1.953,1.953-5.119,0-7.071c-1.951-1.952-5.119-1.952-7.07,0L104,56.929L88.535,41.464  c-1.951-1.952-5.119-1.952-7.07,0c-1.953,1.953-1.953,5.119,0,7.071L96.93,64L81.465,79.464c-1.953,1.952-1.953,5.118,0,7.07  c0.976,0.977,2.256,1.465,3.535,1.465s2.56-0.488,3.535-1.465L104,71.07l15.465,15.464c0.976,0.977,2.256,1.465,3.535,1.465  s2.56-0.488,3.535-1.465c1.953-1.952,1.953-5.118,0-7.07L111.07,64z"/></svg>