<?xml version="1.0" encoding="utf-8"?>
<!-- Generator: Adobe Illustrator 16.0.0, SVG Export Plug-In . SVG Version: 6.00 Build 0)  -->
<!DOCTYPE svg PUBLIC "-//W3C//DTD SVG 1.1//EN" "http://www.w3.org/Graphics/SVG/1.1/DTD/svg11.dtd">
<svg version="1.1" id="Layer_1" xmlns="http://www.w3.org/2000/svg" xmlns:xlink="http://www.w3.org/1999/xlink" x="0px" y="0px"
	 width="512px" height="512px" viewBox="0 0 512 512" enable-background="new 0 0 512 512" xml:space="preserve">
<g>
	<g>
		
			<path fill="#1D1D1B" stroke="#1D1D1B" stroke-width="11.1516" stroke-linecap="round" stroke-linejoin="round" stroke-miterlimit="10" d="
			M47.205,308.271h106.337l163.207-163.205V66.75L179.782,203.721H47.205c-12.317,0-22.303,9.986-22.303,22.303v59.939
			C24.902,298.274,34.888,308.271,47.205,308.271z"/>
		
			<polygon fill="#1D1D1B" stroke="#1D1D1B" stroke-width="11.1516" stroke-linecap="round" stroke-linejoin="round" stroke-miterlimit="10" points="
			212.729,341.215 316.748,445.238 316.748,237.203 		"/>
	</g>
	<path fill="#1D1D1B" d="M442.856,38.189c7.613-7.612,19.961-7.612,27.574,0l0,0c7.613,7.613,7.613,19.957,0,27.58L62.375,473.803
		c-7.623,7.623-19.962,7.623-27.574,0l0,0c-7.623-7.601-7.623-19.95,0-27.573L442.856,38.189z"/>
	<path fill="#1D1D1B" d="M432.13,130.19c61.616,89.049,53.002,212.365-26.225,291.591c-4.355,4.355-4.355,11.413,0,15.769
		c2.179,2.178,5.032,3.268,7.885,3.268c2.854,0,5.707-1.09,7.886-3.268c87.938-87.938,96.553-225.33,26.386-323.297L432.13,130.19z"
		/>
</g>
</svg>
