<?xml version="1.0" encoding="UTF-8" standalone="no"?>
<!-- Generator: Adobe Illustrator 17.1.0, SVG Export Plug-In . SVG Version: 6.00 Build 0)  -->

<svg
   xmlns:dc="http://purl.org/dc/elements/1.1/"
   xmlns:cc="http://creativecommons.org/ns#"
   xmlns:rdf="http://www.w3.org/1999/02/22-rdf-syntax-ns#"
   xmlns:svg="http://www.w3.org/2000/svg"
   xmlns="http://www.w3.org/2000/svg"
   xmlns:sodipodi="http://sodipodi.sourceforge.net/DTD/sodipodi-0.dtd"
   xmlns:inkscape="http://www.inkscape.org/namespaces/inkscape"
   version="1.1"
   id="Layer_1"
   x="0px"
   y="0px"
   viewBox="0 0 29.75 31.75"
   enable-background="new 0 0 46 32"
   xml:space="preserve"
   inkscape:version="0.91 r13725"
   sodipodi:docname="x.svg"
   width="29.75"
   height="31.75"><metadata
     id="metadata9"><rdf:RDF><cc:Work
         rdf:about=""><dc:format>image/svg+xml</dc:format><dc:type
           rdf:resource="http://purl.org/dc/dcmitype/StillImage" /><dc:title></dc:title></cc:Work></rdf:RDF></metadata><defs
     id="defs7" /><sodipodi:namedview
     pagecolor="#ffffff"
     bordercolor="#666666"
     borderopacity="1"
     objecttolerance="10"
     gridtolerance="10"
     guidetolerance="10"
     inkscape:pageopacity="0"
     inkscape:pageshadow="2"
     inkscape:window-width="956"
     inkscape:window-height="1037"
     id="namedview5"
     showgrid="false"
     fit-margin-top="0"
     fit-margin-left="0"
     fit-margin-right="0"
     fit-margin-bottom="0"
     inkscape:zoom="7.375"
     inkscape:cx="14.975"
     inkscape:cy="15.875"
     inkscape:window-x="960"
     inkscape:window-y="20"
     inkscape:window-maximized="0"
     inkscape:current-layer="Layer_1" /><path
     d="m 18.175,15.875 10.9,-11.9 c 0.9,-0.9 0.9,-2.5 0,-3.3 -0.9,-0.9 -2.5,-0.9 -3.3,0 l -10.9,11 -10.8,-11 c -0.9,-0.9 -2.5,-0.9 -3.3,0 -0.9,0.9 -0.9,2.5 0,3.3 l 10.8,11.9 -10.9,11.9 c -0.9,0.9 -0.9,2.5 0,3.3 0.9,0.9 2.5,0.9 3.3,0 l 10.9,-11 10.8,11 c 0.9,0.9 2.5,0.9 3.3,0 0.9,-0.9 0.9,-2.5 0,-3.3 l -10.8,-11.9 z"
     id="path3"
     inkscape:connector-curvature="0" /></svg>