<?xml version="1.0" encoding="UTF-8" standalone="no"?>
<!-- Generator: Adobe Illustrator 17.1.0, SVG Export Plug-In . SVG Version: 6.00 Build 0)  -->

<svg
   xmlns:dc="http://purl.org/dc/elements/1.1/"
   xmlns:cc="http://creativecommons.org/ns#"
   xmlns:rdf="http://www.w3.org/1999/02/22-rdf-syntax-ns#"
   xmlns:svg="http://www.w3.org/2000/svg"
   xmlns="http://www.w3.org/2000/svg"
   xmlns:sodipodi="http://sodipodi.sourceforge.net/DTD/sodipodi-0.dtd"
   xmlns:inkscape="http://www.inkscape.org/namespaces/inkscape"
   version="1.1"
   id="Layer_1"
   x="0px"
   y="0px"
   viewBox="0 0 46 32"
   enable-background="new 0 0 46 32"
   xml:space="preserve"
   inkscape:version="0.91 r13725"
   sodipodi:docname="menu.svg"
   width="46"
   height="32"><metadata
     id="metadata15"><rdf:RDF><cc:Work
         rdf:about=""><dc:format>image/svg+xml</dc:format><dc:type
           rdf:resource="http://purl.org/dc/dcmitype/StillImage" /><dc:title></dc:title></cc:Work></rdf:RDF></metadata><defs
     id="defs13" /><sodipodi:namedview
     pagecolor="#ffffff"
     bordercolor="#666666"
     borderopacity="1"
     objecttolerance="10"
     gridtolerance="10"
     guidetolerance="10"
     inkscape:pageopacity="0"
     inkscape:pageshadow="2"
     inkscape:window-width="956"
     inkscape:window-height="1037"
     id="namedview11"
     showgrid="false"
     fit-margin-top="0"
     fit-margin-left="0"
     fit-margin-right="0"
     fit-margin-bottom="0"
     inkscape:zoom="7.375"
     inkscape:cx="1.1694915"
     inkscape:cy="16"
     inkscape:window-x="960"
     inkscape:window-y="20"
     inkscape:window-maximized="0"
     inkscape:current-layer="Layer_1" /><g
     id="g3"><path
       d="M 42.7,26 3.3,26 C 1.5,26 0,27.3 0,29 c 0,1.7 1.5,3 3.3,3 l 39.4,0 c 1.8,0 3.3,-1.3 3.3,-3 0,-1.7 -1.5,-3 -3.3,-3 z"
       id="path5"
       inkscape:connector-curvature="0" /><path
       d="M 42.7,0 3.3,0 C 1.5,0 0,1.3 0,3 0,4.7 1.5,6 3.3,6 L 42.7,6 C 44.5,6 46,4.7 46,3 46,1.3 44.5,0 42.7,0 Z"
       id="path7"
       inkscape:connector-curvature="0" /><path
       d="M 42.7,13 3.3,13 C 1.5,13 0,14.3 0,16 c 0,1.7 1.5,3 3.3,3 l 39.4,0 c 1.8,0 3.3,-1.3 3.3,-3 0,-1.7 -1.5,-3 -3.3,-3 z"
       id="path9"
       inkscape:connector-curvature="0" /></g></svg>