<?xml version="1.0" ?><!DOCTYPE svg  PUBLIC '-//W3C//DTD SVG 1.1//EN'  'http://www.w3.org/Graphics/SVG/1.1/DTD/svg11.dtd'><svg height="40px" id="co_x5F_multimedia" style="enable-background:new 0 0 40 40;" version="1.1" viewBox="0 0 40 40" width="40px" xml:space="preserve" xmlns="http://www.w3.org/2000/svg" xmlns:xlink="http://www.w3.org/1999/xlink"><path d="M34.916,11.81l-2.292,2.292c-0.428,0.428-1.127,0.428-1.556,0L24.847,7.88  c-0.429-0.429-0.429-1.128,0-1.557l2.292-2.292c1.371-1.371,3.607-1.371,4.978,0l2.799,2.8C36.287,8.203,36.287,10.438,34.916,11.81  z M29.658,17.068L13.016,33.71c-0.692,0.692-1.481,1.09-2.448,1.238l-6.574,1.002c-0.585,0.089-1.092-0.417-1.003-1.002l1.008-6.57  c0.148-0.966,0.547-1.753,1.238-2.445L21.881,9.29c0.428-0.428,1.127-0.428,1.556,0l6.221,6.222  C30.086,15.941,30.086,16.639,29.658,17.068z" style="fill-rule:evenodd;clip-rule:evenodd;"/></svg>