<?xml version="1.0" encoding="UTF-8" standalone="no"?>
<!-- Generator: Adobe Illustrator 17.1.0, SVG Export Plug-In . SVG Version: 6.00 Build 0)  -->

<svg
   xmlns:dc="http://purl.org/dc/elements/1.1/"
   xmlns:cc="http://creativecommons.org/ns#"
   xmlns:rdf="http://www.w3.org/1999/02/22-rdf-syntax-ns#"
   xmlns:svg="http://www.w3.org/2000/svg"
   xmlns="http://www.w3.org/2000/svg"
   xmlns:sodipodi="http://sodipodi.sourceforge.net/DTD/sodipodi-0.dtd"
   xmlns:inkscape="http://www.inkscape.org/namespaces/inkscape"
   version="1.1"
   id="Layer_2"
   x="0px"
   y="0px"
   viewBox="0 0 24 32"
   enable-background="new 0 0 24 32"
   xml:space="preserve"
   inkscape:version="0.91 r13725"
   sodipodi:docname="trash.svg"
   width="24"
   height="32"><metadata
     id="metadata19"><rdf:RDF><cc:Work
         rdf:about=""><dc:format>image/svg+xml</dc:format><dc:type
           rdf:resource="http://purl.org/dc/dcmitype/StillImage" /><dc:title></dc:title></cc:Work></rdf:RDF></metadata><defs
     id="defs17" /><sodipodi:namedview
     pagecolor="#ffffff"
     bordercolor="#666666"
     borderopacity="1"
     objecttolerance="10"
     gridtolerance="10"
     guidetolerance="10"
     inkscape:pageopacity="0"
     inkscape:pageshadow="2"
     inkscape:window-width="956"
     inkscape:window-height="1037"
     id="namedview15"
     showgrid="false"
     fit-margin-top="0"
     fit-margin-left="0"
     fit-margin-right="0"
     fit-margin-bottom="0"
     inkscape:zoom="7.375"
     inkscape:cx="12"
     inkscape:cy="16"
     inkscape:window-x="960"
     inkscape:window-y="20"
     inkscape:window-maximized="0"
     inkscape:current-layer="Layer_2" /><rect
     x="8"
     width="8"
     height="3"
     id="rect3"
     y="0" /><rect
     y="7"
     width="24"
     height="2"
     id="rect5"
     x="0" /><rect
     x="11"
     y="12"
     width="2"
     height="14"
     id="rect7" /><rect
     x="16"
     y="12"
     width="2"
     height="14"
     id="rect9" /><rect
     x="6"
     y="12"
     width="2"
     height="14"
     id="rect11" /><path
     d="m 21.5,32 -19,0 C 1.1,32 0,30.9 0,29.5 L 0,4.5 C 0,3.1 1.1,2 2.5,2 l 19,0 C 22.9,2 24,3.1 24,4.5 l 0,25 C 24,30.9 22.9,32 21.5,32 Z M 2.5,4 C 2.2,4 2,4.2 2,4.5 l 0,25 C 2,29.8 2.2,30 2.5,30 l 19,0 c 0.3,0 0.5,-0.2 0.5,-0.5 l 0,-25 C 22,4.2 21.8,4 21.5,4 l -19,0 z"
     id="path13"
     inkscape:connector-curvature="0" /></svg>