<?xml version="1.0" encoding="UTF-8" standalone="no"?>
<svg
   xmlns:dc="http://purl.org/dc/elements/1.1/"
   xmlns:cc="http://creativecommons.org/ns#"
   xmlns:rdf="http://www.w3.org/1999/02/22-rdf-syntax-ns#"
   xmlns:svg="http://www.w3.org/2000/svg"
   xmlns="http://www.w3.org/2000/svg"
   xmlns:sodipodi="http://sodipodi.sourceforge.net/DTD/sodipodi-0.dtd"
   xmlns:inkscape="http://www.inkscape.org/namespaces/inkscape"
   enable-background="new 0 0 64 64"
   height="52.217808"
   version="1.1"
   viewBox="0 0 54 52.217808"
   width="54"
   xml:space="preserve"
   id="svg3376"
   inkscape:version="0.91 r13725"
   sodipodi:docname="downloading.svg"><metadata
     id="metadata3390"><rdf:RDF><cc:Work
         rdf:about=""><dc:format>image/svg+xml</dc:format><dc:type
           rdf:resource="http://purl.org/dc/dcmitype/StillImage" /><dc:title></dc:title></cc:Work></rdf:RDF></metadata><defs
     id="defs3388" /><sodipodi:namedview
     pagecolor="#ffffff"
     bordercolor="#666666"
     borderopacity="1"
     objecttolerance="10"
     gridtolerance="10"
     guidetolerance="10"
     inkscape:pageopacity="0"
     inkscape:pageshadow="2"
     inkscape:window-width="1916"
     inkscape:window-height="1037"
     id="namedview3386"
     showgrid="false"
     inkscape:zoom="13.328125"
     inkscape:cx="9.636606"
     inkscape:cy="29.086179"
     inkscape:window-x="0"
     inkscape:window-y="20"
     inkscape:window-maximized="0"
     inkscape:current-layer="g3380"
     fit-margin-top="0"
     fit-margin-left="0"
     fit-margin-right="0"
     fit-margin-bottom="0" /><g
     id="mask"
     transform="translate(-5.5,-10)" /><g
     id="Layer_2"
     transform="translate(-5.5,-10)"><g
       id="g3380"><path
         d="M 49.588,22.39 C 47.186,15.033 40.333,10 32.5,10 24.667,10 17.814,15.033 15.412,22.39 9.758,23.83 5.5,29.337 5.5,35.5 c 0,7.317 5.953,13.5 13,13.5 l 6.482,0 2,-2 -2,-2 -6.482,0 c -4.879,0 -9,-4.351 -9,-9.5 0,-4.598 3.484,-8.815 7.768,-9.403 l 1.34,-0.184 0.328,-1.312 C 20.495,18.359 26.073,14 32.5,14 c 6.427,0 12.005,4.359 13.564,10.601 l 0.328,1.312 1.34,0.184 c 4.283,0.588 7.768,4.806 7.768,9.403 0,5.149 -4.121,9.5 -9,9.5 l -6.482,0 -2,2 2,2 6.482,0 c 7.047,0 13,-6.183 13,-13.5 0,-6.163 -4.258,-11.67 -9.912,-13.11 z"
         id="path3384"
         inkscape:connector-curvature="0" /><path
         inkscape:connector-curvature="0"
         d="m 30.363394,36.217808 0,19.2 -4.62,-4.62 c -0.394,-0.394 -0.864,-0.58 -1.38,-0.58 -0.984,0 -2,0.813 -2,2 0,0.531 0.193,0.994 0.58,1.38 l 7.958,7.958 c 0.328,0.328 0.733,0.662 1.462,0.662 0.729,0 1.08,-0.279 1.447,-0.646 l 7.973,-7.974 c 0.387,-0.386 0.58,-0.849 0.58,-1.38 0,-1.188 -1.016,-2 -2,-2 -0.516,0 -0.986,0.186 -1.38,0.58 l -4.62,4.62 0,-19.2 c 0,-1.104 -0.896,-2 -2,-2 -1.104,0 -2,0.896 -2,2 z"
         id="path3564" /></g></g></svg>