<?xml version="1.0" encoding="UTF-8" standalone="no"?>
<svg
   xmlns:dc="http://purl.org/dc/elements/1.1/"
   xmlns:cc="http://creativecommons.org/ns#"
   xmlns:rdf="http://www.w3.org/1999/02/22-rdf-syntax-ns#"
   xmlns:svg="http://www.w3.org/2000/svg"
   xmlns="http://www.w3.org/2000/svg"
   xmlns:sodipodi="http://sodipodi.sourceforge.net/DTD/sodipodi-0.dtd"
   xmlns:inkscape="http://www.inkscape.org/namespaces/inkscape"
   enable-background="new 0 0 96 96"
   height="96px"
   id="magnifying_glass"
   version="1.1"
   viewBox="0 0 96 96"
   width="96px"
   xml:space="preserve"
   inkscape:version="0.91 r13725"
   sodipodi:docname="logo.svg"><metadata
     id="metadata4193"><rdf:RDF><cc:Work
         rdf:about=""><dc:format>image/svg+xml</dc:format><dc:type
           rdf:resource="http://purl.org/dc/dcmitype/StillImage" /></cc:Work></rdf:RDF></metadata><defs
     id="defs4191" /><sodipodi:namedview
     pagecolor="#ffffff"
     bordercolor="#666666"
     borderopacity="1"
     objecttolerance="10"
     gridtolerance="10"
     guidetolerance="10"
     inkscape:pageopacity="0"
     inkscape:pageshadow="2"
     inkscape:window-width="1916"
     inkscape:window-height="1037"
     id="namedview4189"
     showgrid="false"
     inkscape:zoom="8.8645833"
     inkscape:cx="48"
     inkscape:cy="48"
     inkscape:window-x="0"
     inkscape:window-y="20"
     inkscape:window-maximized="0"
     inkscape:current-layer="magnifying_glass" /><path
     d="m 5.16925,84.971 22.5,-22.5 c -4.92,-6.16 -7.87,-13.971 -7.87,-22.471 0,-19.88 16.12,-36 36,-36 19.88,0 36,16.12 36,36 0,19.88 -16.12,36 -36,36 -8.5,0 -16.311,-2.95 -22.471,-7.87 l -22.5,22.5 c -0.779,0.78 -1.812,1.17 -2.829,1.17 -1.021,0 -2.05,-0.39 -2.83,-1.17 -1.559,-1.56 -1.559,-4.101 0,-5.659 z M 55.79925,68 c 15.464,0 28,-12.536 28,-28 0,-15.464 -12.536,-28 -28,-28 -15.464,0 -28,12.536 -28,28 0,15.464 12.536,28 28,28 z"
     id="_x3C_Path_x3E_"
     inkscape:connector-curvature="0" /></svg>