<?xml version="1.0" encoding="UTF-8" standalone="no"?>
<!-- Generator: Adobe Illustrator 17.1.0, SVG Export Plug-In . SVG Version: 6.00 Build 0)  -->

<svg
   xmlns:dc="http://purl.org/dc/elements/1.1/"
   xmlns:cc="http://creativecommons.org/ns#"
   xmlns:rdf="http://www.w3.org/1999/02/22-rdf-syntax-ns#"
   xmlns:svg="http://www.w3.org/2000/svg"
   xmlns="http://www.w3.org/2000/svg"
   xmlns:sodipodi="http://sodipodi.sourceforge.net/DTD/sodipodi-0.dtd"
   xmlns:inkscape="http://www.inkscape.org/namespaces/inkscape"
   version="1.1"
   id="Layer_2"
   x="0px"
   y="0px"
   viewBox="0 0 28 22"
   enable-background="new 0 0 46 32"
   xml:space="preserve"
   inkscape:version="0.91 r13725"
   sodipodi:docname="tag.svg"
   width="28"
   height="22"><metadata
     id="metadata29"><rdf:RDF><cc:Work
         rdf:about=""><dc:format>image/svg+xml</dc:format><dc:type
           rdf:resource="http://purl.org/dc/dcmitype/StillImage" /><dc:title></dc:title></cc:Work></rdf:RDF></metadata><defs
     id="defs27" /><sodipodi:namedview
     pagecolor="#ffffff"
     bordercolor="#666666"
     borderopacity="1"
     objecttolerance="10"
     gridtolerance="10"
     guidetolerance="10"
     inkscape:pageopacity="0"
     inkscape:pageshadow="2"
     inkscape:window-width="956"
     inkscape:window-height="1037"
     id="namedview25"
     showgrid="false"
     fit-margin-top="0"
     fit-margin-left="0"
     fit-margin-right="0"
     fit-margin-bottom="0"
     inkscape:zoom="7.375"
     inkscape:cx="13.9"
     inkscape:cy="11"
     inkscape:window-x="960"
     inkscape:window-y="20"
     inkscape:window-maximized="0"
     inkscape:current-layer="Layer_2" /><g
     id="g3"
     transform="translate(-9.1,-5)"><g
       id="g5"><path
         d="m 19.6,21.9 c 0,0.4 0.2,0.6 0.5,0.6 l 0,0 c 0.3,0 0.5,-0.2 0.5,-0.6 l 0,-11.8 c 0,-0.4 -0.2,-0.6 -0.5,-0.6 l 0,0 c -0.3,0 -0.5,0.4 -0.5,0.6 l 0,11.8 z"
         id="path7"
         inkscape:connector-curvature="0" /></g><g
       id="g9"><path
         d="m 25.6,21.9 c 0,0.4 0.2,0.6 0.5,0.6 l 0,0 c 0.3,0 0.5,-0.2 0.5,-0.6 l 0,-11.8 c 0,-0.4 -0.2,-0.6 -0.5,-0.6 l 0,0 c -0.3,0 -0.5,0.4 -0.5,0.6 l 0,11.8 z"
         id="path11"
         inkscape:connector-curvature="0" /></g></g><g
     id="g13"
     transform="translate(-9.1,-5)"><g
       id="g15"><path
         d="m 17.2,12.5 c -0.4,0 -0.6,0.2 -0.6,0.5 l 0,0 c 0,0.3 0.2,0.5 0.6,0.5 l 11.8,0 c 0.4,0 0.6,-0.2 0.6,-0.5 l 0,0 c 0,-0.3 -0.4,-0.5 -0.6,-0.5 l -11.8,0 z"
         id="path17"
         inkscape:connector-curvature="0" /></g><g
       id="g19"><path
         d="m 17.2,18.5 c -0.4,0 -0.6,0.2 -0.6,0.5 l 0,0 c 0,0.3 0.2,0.5 0.6,0.5 l 11.8,0 c 0.4,0 0.6,-0.2 0.6,-0.5 l 0,0 c 0,-0.3 -0.4,-0.5 -0.6,-0.5 l -11.8,0 z"
         id="path21"
         inkscape:connector-curvature="0" /></g></g><path
     d="M 25.6,22 2.4,22 C 1,22 0,20.9 0,19.6 L 0,2.4 C 0,1.1 1.1,0 2.4,0 L 25.6,0 C 27,0 28,1.1 28,2.4 l 0,17.2 C 28,20.9 27,22 25.6,22 Z M 2.4,1 C 1.6,1 1,1.7 1,2.4 L 1,19.6 C 1,20.4 1.7,21 2.4,21 l 23.2,0 C 26.4,21 27,20.3 27,19.6 L 27,2.4 C 27,1.6 26.3,1 25.6,1 L 2.4,1 Z"
     id="path23"
     inkscape:connector-curvature="0" /></svg>