<?xml version="1.0" ?><!DOCTYPE svg  PUBLIC '-//W3C//DTD SVG 1.1//EN'  'http://www.w3.org/Graphics/SVG/1.1/DTD/svg11.dtd'><svg enable-background="new 0 0 128 128" height="128px" id="Layer_1" version="1.1" viewBox="0 0 128 128" width="128px" xml:space="preserve" xmlns="http://www.w3.org/2000/svg" xmlns:xlink="http://www.w3.org/1999/xlink"><g><path d="M84.725,98.487c-1.793,0-3.525-0.967-4.423-2.661c-1.292-2.441-0.361-5.467,2.08-6.759   c0.462-0.255,12.138-6.876,12.138-24.089c0-17.784-12.433-26.217-12.558-26.3c-2.304-1.524-2.935-4.626-1.411-6.929   c1.523-2.302,4.628-2.934,6.929-1.411c0.696,0.46,17.04,11.542,17.04,34.64c0,23.415-16.747,32.549-17.46,32.927   C86.314,98.301,85.514,98.487,84.725,98.487z"/></g><g><path d="M99.493,118.149c-1.758,0-3.462-0.929-4.376-2.573c-1.341-2.414-0.471-5.458,1.943-6.799   C97.895,108.303,118,96.511,118,65.634c0-31.251-20.505-46.071-21.378-46.687c-2.251-1.587-2.802-4.701-1.223-6.958   c1.579-2.258,4.678-2.817,6.94-1.246C103.388,11.47,128,28.978,128,65.634c0,36.974-25.019,51.294-26.084,51.886   C101.147,117.946,100.314,118.149,99.493,118.149z"/></g><g><path d="M61.858,14.477L24,45.998L6,45.999c-3.3,0-6,2.7-6,6v23.999c0,3.3,2.7,6,6,6l18,0.001l37.858,31.521   c3.378,2.795,6.142,1.512,6.142-2.853V17.33C68,12.967,65.236,11.683,61.858,14.477z"/></g></svg>